<mxfile host="app.diagrams.net" modified="2022-10-31T06:15:38.117Z" agent="5.0 (Windows NT 10.0; Win64; x64) AppleWebKit/537.36 (KHTML, like Gecko) Chrome/107.0.0.0 Safari/537.36" etag="9ILx2CErhWRtYgUVuR_3" version="20.5.1" type="github">
  <diagram id="w4o3rqW8vJyvgkdEHHWb" name="第 1 页">
    <mxGraphModel dx="1778" dy="947" grid="1" gridSize="10" guides="1" tooltips="1" connect="1" arrows="1" fold="1" page="1" pageScale="1" pageWidth="827" pageHeight="1169" math="0" shadow="0">
      <root>
        <mxCell id="0" />
        <mxCell id="1" parent="0" />
        <mxCell id="smteuxdM7ORI9zOPRPf1-5" value="&lt;font style=&quot;font-size: 17px;&quot; face=&quot;Times New Roman&quot;&gt;(a)&amp;nbsp;&lt;/font&gt;&lt;font face=&quot;Times New Roman&quot;&gt;&lt;span style=&quot;font-size: 17px;&quot;&gt;A-Fruit&lt;/span&gt;&lt;/font&gt;" style="text;html=1;strokeColor=none;fillColor=none;align=center;verticalAlign=middle;whiteSpace=wrap;rounded=0;" parent="1" vertex="1">
          <mxGeometry x="220" y="494" width="100" height="30" as="geometry" />
        </mxCell>
        <mxCell id="smteuxdM7ORI9zOPRPf1-6" value="&lt;font style=&quot;font-size: 17px;&quot; face=&quot;Times New Roman&quot;&gt;(b)&amp;nbsp;&lt;/font&gt;&lt;font face=&quot;Times New Roman&quot;&gt;&lt;span style=&quot;font-size: 17px;&quot;&gt;Inter-Fruit&lt;/span&gt;&lt;/font&gt;" style="text;html=1;strokeColor=none;fillColor=none;align=center;verticalAlign=middle;whiteSpace=wrap;rounded=0;" parent="1" vertex="1">
          <mxGeometry x="490" y="494" width="113" height="30" as="geometry" />
        </mxCell>
        <mxCell id="smteuxdM7ORI9zOPRPf1-7" value="" style="shape=image;verticalLabelPosition=bottom;labelBackgroundColor=default;verticalAlign=top;aspect=fixed;imageAspect=0;image=data:image/png,iVBORw0KGgoAAAANSUhEUgAABI8AAAOTCAYAAAA2RiNsAAAgAElEQVR4nOzdUWhc6Xnw8ScfezMuogatTWDRRsUXEzbUGKUwZVN9G8KWOoNjSmDZSNC9EAZXYGw5UIuNRZctsoxaWG/2xhiEL7YgtRjKIhtVFyYkn5olQ5MhpOAylBKxuil4BSpiPZf+LhaLPZp55JEtWSPp94PiPcfvOfO6WBD/ec6Zrz1+/PhxAAAAAEAb/2evNwAAAABA9xKPAAAAAEiJRwAAAACkxCMAAAAAUuIRAAAAACnxCAAAAICUeAQAAABASjwCAAAAICUeAQAAAJASjwAAAABIvbSbN19dXY1Hjx7Fo0eP4tVXX41SqbQj9/z888/jyJEj0dfXtwO7BAAAACDztcePHz/erZu/8847UavVIiJifn4+yuXyM92n0WjEP/3TP8Wnn34ay8vLhd+rVCrxgx/8IL73ve9Fb29vR/c6e/bsxnG1Wo0bN248074AAAAADrpdmzxaXFzcCEcREUeOHNn2PZrNZszNzcX09HS6plarRa1Wi/7+/piYmIjBwcEt77l5H0ePHt32vgAAAAAOi11551G9Xo9Lly4Vzj169Gjb9/nJT36yZTj6quXl5Th37lwsLS1tuW7zPtbW1ra9LwAAAIDDYsfjUb1ej6GhoZbz2508unPnTiwsLBTOVSqVmJmZifn5+bh//36Mj49Hf39/Yc25c+ei0Wik9zV5BAAAANC5HY1Hi4uLbcNRxPYmj1ZWVmJiYqJwbnR0ND7++OMYHByMcrkcfX19MTIyEjMzM1GtVgtrr127lt7b5BEAAABA53YkHjWbzfjwww9bHlX7qu1MHt2+fbtwPDw8HGNjY23X9vX1xY9//OPCBFKtVot6vd7RPkweAQAAAOSeOx4tLi7GX/7lX8bNmze3XNfp5FGz2YzZ2dnCuZGRkS2v6evri8uXLxfOffjhhx3tw+QRAAAAQO6Zv21tZWUlrl69WvhGtSeGh4djbW2t8M6iTieP/vM//7NwXK1Wo6+v76nXvfHGG4XjWq0Wq6ur0dvbWzhv8ggAAACgc88cj371q1+1DUeTk5Px1ltvtUwCdTp5dPfu3cLx66+/3tF1pVIphoeHC1NLDx48iMHBwS330cnk0eLiYqyvr0dPT8/Gr8ePH4+BgYGO9gYAAACwXz1zPOrp6SkcDw8Px8jIyMaU0OaJnk4nj/77v/+7cHzy5MmO9/Taa68Vjn/zm9+0xKPtTh7dvn07pqenC+eq1WpMTU11vC8AAACA/eqZ49H6+npEfBlS/vqv/zrK5XLh9zdP9HQ6ebR5mmk7L9r++te/Xjj+3//935Y125k8WlxcbAlHlUolpqamolQqdbyv3fTw4fpebwEAAADYh44d63n6oniOePSnf/qnMT8/3xKNnniWyaPV1dWWc5287+iJ48ePF443TzG120c2eVSv11u+Pe7JxFG3hCMAAACA3fbM8ehpUedZJo8+//zzZ91OW+3eydTJ5FG9Xo+hoaHCuW6bOAIAAAB4EZ45Hj3Ns77z6Ksqlcq21r/88stPXfO0yaN24aibJ446HTEDAAAAeBa7Fo+e9Z1HX3XixIltre/t7X3qmq0mj9qFo9HR0Th//nxXhiMAAACA3dbVk0e7IZs8aheOxsfHY2Rk5IXtDQAAAKDb/J/duvFOTB7thnaTR0tLS20njoQjAAAA4LA79JNHDx48iIWFhZZ1r7zyyovaEgAAAEDX6up3Hs3OzsZ7773X8fpGo/HUNZv3sby83HbdxMREnDx5MsrlcsefvxcePlzf6y0AAAAA+1CnX8K1a4+t7ZfJo61cu3Ytms3mLu4GAAAAoLt11TuPdnrKZ3h4uOVcto/R0dGYn58vnKvVajE3N7ejewIAAADYT7pu8qi/v79wvLKy0vFn/u53vysc/+Ef/mHLmnb7GB0djbGxsSiXyzE5OVn4venp6Y4ehwMAAAA4iLpq8igi4rXXXiscZ+8kamd9vfj+n29+85stazbvo1KpxNjY2MbxmTNnWgKWx9cAAACAw6rrJo/+4i/+onD8X//1Xx1/5s9//vPC8R/90R+1rNm8jxMnThSOS6VSXL9+vXCuVqvFvXv3Ot4HAAAAwEHRdZNHm4PP5iCUWVlZiVqtVjjX7h1Km/exeZ8REQMDAy3vS5qYmPD4GgAAAHDodN3kUblcjkqlsnFcq9VicXHxqdfdvn27cDw+Pt523eZ9bN7nE1euXPH4GgAAAHDodd3kUUTrt6TduHFjyxdnLy0txezsbOHcd77znbZrO5k8ivjy8bWJiYnCOd++BgAAABw2XTd5FBHxxhtvFKaPlpeX49y5c7G0tFRY12w2486dO3Hu3LnC+fHx8baPrLXbRzZ5FBExODjYErJ8+xoAAABwmLy0Wzd+nsmjUqkUV69ejbNnz26cexKQIr6cTFpbW4uFhYWWayuVSgwNDaX37nTy6IkLFy7Ep59+WvjWt4sXL8Ynn3wSpVKpoz8PAAAAwH7VlZNHEV+++2hmZqblvUMREbOzs23DUbVajWvXrm0ZdbYzeRQR0dvbG5cvXy6cW15ejlu3bm15HQAAAMBB0JXvPHpicHAwZmdnWx4da2d8fDympqair69vy3XbnTyKiDh9+nRUq9XCuZs3b0a9Xn/qtQAAAAD72dceP378eK830Ylmsxm//vWv44svvoj19fXo6emJ9fX1OHnyZLz66quH9hGyhw/X93oLAAAAwD507FhPR+v2TTyiPfEIAAAAeBadxqNde2wNAAAAgP1PPAIAAAAgJR4BAAAAkBKPAAAAAEiJRwAAAACkxCMAAAAAUuIRAAAAACnxCAAAAICUeAQAAABASjwCAAAAICUeAQAAAJASjwAAAABIvbTXG2B/OHasZ6+3wAH28OH6Xm8BAACAhMkjAAAAAFLiEQAAAAAp8QgAAACAlHgEAAAAQMoLs3ku3/6bj/d6C+wzv/mHd/Z6CwAAAGyDySMAAAAAUuIRAAAAACnxCAAAAICUeAQAAABASjwCAAAAICUeAQAAAJASjwAAAABIiUcAAAAApMQjAAAAAFLiEQAAAAAp8QgAAACAlHgEAAAAQEo8AgAAACAlHgEAAACQEo8AAAAASIlHAAAAAKTEIwAAAABS4hEAAAAAKfEIAAAAgJR4BAAAAEBKPAIAAAAgJR4BAAAAkBKPAAAAAEiJRwAAAACkxCMAAAAAUuIRAAAAACnxCAAAAICUeAQAAABASjwCAAAAICUeAQAAAJASjwAAAABIiUcAAAAApMQjAAAAAFLiEQAAAAAp8QgAAACAlHgEAAAAQEo8AgAAACAlHgEAAACQEo8AAAAASIlHAAAAAKTEIwAAAABS4hEAAAAAKfEIAAAAgJR4BAAAAEBKPAIAAAAgJR4BAAAAkBKPAAAAAEiJRwAAAACkxCMAAAAAUuIRAAAAACnxCAAAAICUeAQAAABASjwCAAAAICUeAQAAAJASjwAAAABIiUcAAAAApMQjAAAAAFLiEQAAAAAp8QgAAACAlHgEAAAAQEo8AgAAACAlHgEAAACQEo8AAAAASIlHAAAAAKTEIwAAAABS4hEAAAAAKfEIAAAAgJR4BAAAAEBKPAIAAAAgJR4BAAAAkBKPAAAAAEiJRwAAAACkxCMAAAAAUuIRAAAAACnxCAAAAICUeAQAAABASjwCAAAAICUeAQAAAJASjwAAAABIiUcAAAAApMQjAAAAAFLiEQAAAAAp8QgAAACAlHgEAAAAQEo8AgAAACAlHgEAAACQEo8AAAAASIlHAAAAAKTEIwAAAABS4hEAAAAAKfEIAAAAgJR4BAAAAEBKPAIAAAAgJR4BAAAAkBKPAAAAAEiJRwAAAACkxCMAAAAAUuIRAAAAACnxCAAAAICUeAQAAABASjwCAAAAICUeAQAAAJB6aa83AHBYHDvWs9db4AB7+HB9r7cAAMABZfIIAAAAgJR4BAAAAEBKPAIAAAAgJR4BAAAAkPLCbIA99Nnf/fFeb4F96NW//Y+93gIAAIeIySMAAAAAUuIRAAAAACnxCAAAAIDUvnvn0erqanz++edx5MiRePnll6NUKu31lgAAAAAOrH0Rj5aWluJnP/tZzM7Otvxef39/vP322/Gd73wnyuXyU+/VaDTi7NmzG8fVajVu3Lixo/sFAAAAOCi6Oh6trq7G5ORkLCwspGuWl5djeno6IiLGx8djaGhoy2mkI0eOFI6PHj26M5sFAAAAOIC69p1HKysrMTw8vGU42mx6ejrOnz8fzWYzXfPo0aPC8dra2jPvEQAAAOCg69p49MEHH8Ty8nLhXKVSiZmZmZifn4/79+/H+Ph49Pf3F9bUarWYm5tL72vyCAAAAKBzXRmPlpaWWiaORkdH4+OPP47BwcEol8vR19cXIyMj8cknn0S1Wi2snZ6ejkaj0fbeJo8AAAAAOteV8ehf/uVfCsfDw8MxNjbWdm2pVIqpqamoVCqF87/85S/brjd5BAAAANC5roxHm6eORkZGtlxfKpVieHi4cO6f//mf2641eQQAAADQua6LRysrKy3n+vr6nnrdt771rcLx5vclPWHyCAAAAKBzL+31BnbK5omiTtd1Mnm0uLgY6+vr0dPTs/Hr8ePHY2Bg4Jn2CgAAALBfdF08ajdlVK/Xnxpqvvjii8Lx5ncgPbHdyaPbt2/H9PR04Vy1Wo2pqaktrwMAAAA4CLrusbWIaHl/0d27d7dc32w248MPPyycy2LTdiaPFhcXW8JRpVKJqampKJVKW+4JAAAA4CDoynj0ox/9qHA8Ozsbt2/fjmaz2bK22WzGT37yk6jVaoXzf/VXf9X23p1OHtXr9bh06VLhXLVajVu3bglHAAAAwKHRdY+tRUSUy+UYHx8vTP1MT0/Hz3/+8/jud78bp06dii+++CL+53/+JyYmJlqun5ubi97e3rb37mTyqF6vx9DQUOGciSMAAADgMOrKeBQRMTIyEqdOnYp3331345vTarVay4TRV1Uqlbh27dqW3872tMmjduHoyTuOujEcHTvWs9dbgOfm7zE8Pz9HAADslq58bO2Jb3zjG/H22293vH54eDhefvnlLddsNXnULhyNjo52bTgCAAAA2G1dO3m0tLQU586d29Y1ly5deur0UTZ51C4cjY+Px8jIyLb2AAAAAHCQdOXk0Z07d9qGo5mZmbh//340Go1oNBoxPz8fo6OjhTW1Wi3efPPNaDQabe/dbvJoaWmp7cSRcAQAAAAcdl0Xj1ZWVlpegl2tVuO3v/1tDA4OFiaKyuVyjI2Nxf3796O/v79wzcWLF9t+O9vmyaMHDx60DVWvvPLK8/wxAAAAAA6Ernts7YMPPigc9/f3P/WdQ319fTEzMxPnzp3beLn28vJy/OIXv4jTp08X1m6ePHqyfrOJiYk4efJklMvlZ/ljvDAPH66/kM/xIlZ204v6e7zX/Byxmw7LzxEAADun03+jdNXkUbPZjIWFhcK569evd/Sy6r6+vpYJotnZ2ZZ1myePtnLt2rW200sAAAAAh0VXxaPPPvus5dzAwEDH13/ve98rHNdqtVhdXS2c2zx59MTo6GjMz8+3XD83N9fx5wMAAAAcNF0VjzYbHh7e1vre3t6Wc5tjUbvJo9HR0RgbG4tyuRyTk5OF35uenk5fvg0AAABw0HV1PNoJm+PR5uNKpRJjY2Mbx2fOnGl5+bbH1wAAAIDDqqvjUbt3Fm3X5kmjzccnTpwoHJdKpbh+/XrhXK1Wi3v37j33XgAAAAD2m66KRy+//HLLuXq93vH17db29fUVjjdPHq2trbVcMzAw0PLI3MTEhMfXAAAAgEOnq+JRb29vVKvVwrm7d+92fP0//uM/Fo7bvTNp8+TR0aNH297rypUrHl8DAAAADr2uikcRET/84Q8Lx7Ozs3H79u2nXvfhhx/GwsJC4dyPfvSjlnWdTB5FfPn42sTEROGcb18DAAAADpuui0eDg4Mt00fT09Px/vvvt31sbGVlJd5///24efNm4fzo6GiUy+WW9Z1OHj3Zy+bpJd++BgAAABwmL+31BtqZmpqKBw8exPLy8sa52dnZmJ2djf7+/nj99ddjbW0tVldXo1artVxfrVbj/Pnzbe/d6eTRExcuXIhPP/20sJeLFy/GJ598EqVSaTt/LAAAAIB9p+smjyK+fGTsk08+aZlAiohYXl6O2dnZWFhYaBuORkdHY2pqKg0725k8ivjyPUyXL19u2cOtW7ee9scAAAAA2Pe6Mh5FfBmQbty4ETMzM1GpVJ66vlKpxNzcXIyNjW05EbTdyaOIiNOnT7eErJs3b27rm+AAAAAA9qOvPX78+PFeb6ITq6ur8e///u8REbG+vh49PT2xvr4eJ06ciG984xvR29u7xzvcGw8frr+Qzzl2rKft+W//zccv5PM5OH7zD++0nHtRf4/3Wrufo8/+7o/3YCfsd6/+7X+0nDssP0cAAOyc7N/6m3XlO4/a6e3tjdOnT+/1NgAAAAAOla59bA0AAACAvSceAQAAAJASjwAAAABIiUcAAAAApMQjAAAAAFLiEQAAAAAp8QgAAACAlHgEAAAAQEo8AgAAACAlHgEAAACQEo8AAAAASIlHAAAAAKTEIwAAAABS4hEAAAAAKfEIAAAAgJR4BAAAAEBKPAIAAAAgJR4BAAAAkBKPAAAAAEiJRwAAAACkxCMAAAAAUuIRAAAAACnxCAAAAICUeAQAAABASjwCAAAAICUeAQAAAJASjwAAAABIiUcAAAAApMQjAAAAAFLiEQAAAAAp8QgAAACAlHgEAAAAQEo8AgAAACAlHgEAAACQEo8AAAAASIlHAAAAAKTEIwAAAABS4hEAAAAAKfEIAAAAgJR4BAAAAEBKPAIAAAAgJR4BAAAAkBKPAAAAAEiJRwAAAACkxCMAAAAAUuIRAAAAACnxCAAAAICUeAQAAABASjwCAAAAICUeAQAAAJASjwAAAABIiUcAAAAApMQjAAAAAFLiEQAAAAAp8QgAAACAlHgEAAAAQEo8AgAAACAlHgEAAACQEo8AAAAASIlHAAAAAKTEIwAAAABS4hEAAAAAKfEIAAAAgJR4BAAAAEBKPAIAAAAgJR4BAAAAkBKPAAAAAEiJRwAAAACkxCMAAAAAUuIRAAAAACnxCAAAAICUeAQAAABASjwCAAAAICUeAQAAAJASjwAAAABIiUcAAAAApMQjAAAAAFLiEQAAAAAp8QgAAACAlHgEAAAAQEo8AgAAACAlHgEAAACQEo8AAAAASIlHAAAAAKTEIwAAAABS4hEAAAAAKfEIAAAAgJR4BAAAAEBKPAIAAAAgJR4BAAAAkBKPAAAAAEiJRwAAAACkxCMAAAAAUuIRAAAAACnxCAAAAICUeAQAAABASjwCAAAAICUeAQAAAJASjwAAAABIiUcAAAAApMQjAAAAAFLiEQAAAAAp8QgAAACAlHgEAAAAQEo8AgAAACAlHgEAAACQEo8AAAAASIlHAAAAAKTEIwAAAABS4hEAAAAAKfEIAAAAgJR4BAAAAEBKPAIAAAAgJR4BAAAAkBKPAAAAAEiJRwAAAACkxCMAAAAAUuIRAAAAACnxCAAAAICUeAQAAABASjwCAAAAICUeAQAAAJASjwAAAABIiUcAAAAApMQjAAAAAFLiEQAAAAAp8QgAAACAlHgEAAAAQEo8AgAAACD10l5v4Fmsrq7Go0eP4tGjR1Eul/d6OwAAAAAH1r6IR81mM37961/Hz372s5idnW35/UqlEj/4wQ/izJkzUSqVtrxXo9GIs2fPbhxXq9W4cePGju8ZAAAA4CDo+njUaDTi2rVrUavV0jW1Wi1qtVrMzMzE9evXY2BgIF175MiRwvHRo0d3bK8AAAAAB01Xv/NoaWkpzp49u2U4+qrl5eUYGhqKer2ernn06FHheG1t7bn2CAAAAHCQde3kUaPRiHPnzrWcHx8fj1OnTsWxY8fi4cOH8dvf/jamp6cLa4aGhuL+/fvR19fXcr3JIwAAAIDOdeXkUbPZjIsXLxbO9ff3x/3792NkZCQGBgair68vBgYGYmRkJObn56O/v7+w/oMPPmh7b5NHAAAAAJ3rynh07969WF5e3jju7++P2dnZtpNEERHlcjmuX79eOLewsBCrq6sta00eAQAAAHSuK+PRzMxM4XhiYiJ6e3u3vGZgYCAqlUrh3IMHD1rWmTwCAAAA6FzXxaNGo1GYOqpUKjE4ONjRtd/97nc3/rtarcYXX3zRssbkEQAAAEDnuu6F2f/6r/9aOB4eHu742pGRkRgZGdlyzbNMHi0uLsb6+nr09PRs/Hr8+PEYGBjoeG8AAAAA+1HXxaN6vV44fuONN3b0/tudPLp9+3bLt7lVq9WYmpra0X0BAAAAdKOue2ytVqtt/Hd/f3+USqW26xqNRjQajW3ffzuTR4uLiy3hqFKpxNTUVLovAAAAgIOkqyaPNseg119/feO/m81m3Lt3L+7evVsITBFfTgL98Ic/jD/5kz95atTpdPKoXq/HpUuXWj5HOAIAAAAOk66KR5v19fVFRMTS0lJMTk4WXqT9VQsLC7GwsBD9/f3x0UcfRblcTu/ZyeRRvV6PoaGhwjkTRwAAAMBh1FXx6Pe//33huKenp+07hzLLy8tx9uzZmJmZSb+h7WmTR+3CUTdPHB071rPXW4Dn5u8xPD8/RwAA7JauikebtXtEbXR0NL75zW/G+vp6RETMzMy0TCSdO3cu7t+/vzG59FVbTR61C0ejo6Nx/vz5rgxHAAAAALutq+LRkyD0xFfD0fDwcFy4cCF6e3sLa86cORNzc3Mt00lXr16Njz/+uOUzssmjduFofHw8RkZGtv8HAQAAADgguurb1np62o/cj46OxnvvvdcSjiIiSqVSjIyMxOTkZOF8rVaLer3esr7d5NHS0lLbiSPhCAAAADjsunryKCKiv78/zp8//9Rr33rrrZbH3O7evRsDAwOFdZsnjx48eBALCwst93vllVc63faeeviw9f9nu8G7NNhNL+rv8V7zc8RuOiw/RwAA7JxO/43S9ZNHb7/9dsfvGxoeHi4cf/rppy1rNk8eZd/gNjExEY1Go6PPBQAAADiouioe/cEf/EHLuT//8z/v+PpvfetbheN2YWjz5NFWrl27Fs1ms+P1AAAAAAdNV8Wj48ePt5zbPCm0lXbfrrZ5eii73+joaMzPzxfO1Wq1mJub6/jzAQAAAA6aropH7aaCtjMp1Mk9291vdHQ0xsbGolwut7x4e3p62uNrAAAAwKHVVfGo3eTQdiaP2j1itvmem+9XqVRibGxs4/jMmTPR399fWOPxNQAAAOCw6qp4FNH60uvf/e53HV/72WefFY43R6CI1smjEydOFI5LpVJcv369cK5Wq8W9e/c63gcAAADAQdF18ahSqRSO79692/G1v/zlLwvH3//+91vWbJ48Wltba1kzMDDQErF8+xoAAABwGHVdPHrjjTcKx7VaLRYXF5963erqakxPTxfOffvb325Zt3ny6OjRo23vd+XKFY+vAQAAAIde18WjUqkU4+PjhXM3btyIlZWV9JpmsxmXL18unKtUKjE4ONiytpPJoyf7mJiYKJzz7WsAAADAYdN18SgiYmhoqDD1s7y8HG+++WbcuXOnZfJnZWUlzp8/H7VarXD+6tWrbe/d6eRRRMTg4GDL42u+fQ0AAAA4TLoyHpVKpZiZmWl5bGxiYiJOnToV77//fly+fDneeeedePPNN1vC0fj4eJTL5bb37nTy6IkLFy607OPixYseXwMAAAAOha6MRxERfX19MTMz0/IC7YiI2dnZWFhYaIlGERGTk5MxMjKS3nc7k0cREb29vS2PxC0vL8etW7e2vA4AAADgIOjaeBTxZUC6detW/PSnP33q2mq1GvPz8/HWW29tuW67k0cREadPn45qtVo4d/PmzajX60+9FgAAAGA/+9rjx48f7/UmOtVoNOL3v/99rK+vR09PT6yvr8fXv/71eO2116K3t3evt7cnHj5cfyGfc+xYT9vz3/6bj1/I53Nw/OYf3mk596L+Hu+1dj9Hn/3dH+/BTtjvXv3b/2g5d1h+jgAA2DnZv/U3e2mX97GjyuVy+i4jAAAAAHZeVz+2BgAAAMDeEo8AAAAASIlHAAAAAKTEIwAAAABS4hEAAAAAKfEIAAAAgJR4BAAAAEBKPAIAAAAgJR4BAAAAkBKPAAAAAEiJRwAAAACkxCMAAAAAUuIRAAAAACnxCAAAAICUeAQAAABASjwCAAAAICUeAQAAAJASjwAAAABIiUcAAAAApMQjAAAAAFLiEQAAAAAp8QgAAACAlHgEAAAAQEo8AgAAACAlHgEAAACQEo8AAAAASIlHAAAAAKTEIwAAAABS4hEAAAAAKfEIAAAAgJR4BAAAAEBKPAIAAAAgJR4BAAAAkBKPAAAAAEiJRwAAAACkxCMAAAAAUuIRAAAAAKmX9noDAACdOnasZ6+3wAH28OH6Xm8BALqSySMAAAAAUuIRAAAAACnxCAAAAICUeAQAAABASjwCAAAAIOXb1gCAfe3PPvqzvd4C+9C/Xfy3vd4CAOwbJo8AAAAASIlHAAAAAKTEIwAAAABS4hEAAAAAKfEIAAAAgJR4BAAAAEBKPAIAAAAgJR4BAAAAkBKPAAAAAEiJRwAAAACkxCMAAAAAUuIRAAAAACnxCAAAAICUeAQAAABASjwCAAAAICUeAQAAAJASjwAAAABIiUcAAAAApMQjAAAAAFLiEQAAAAAp8QgAAACAlHgEAAAAQEo8AgAAACAlHgEAAACQEo8AAAAASIlHAAAAAKTEIwAAAABS4hEAAAAAKfEIAAAAgJR4BAAAAEBKPAIAAAAgJR4BAAAAkBKPAAAAAEiJRwAAAACkxCMAAAAAUuIRAAAAACnxCAAAAICUeAQAAABASjwCAAAAICUeAQAAAJASjwAAAABIiUcAAAAApMQjAAAAAFLiEQAAAAAp8QgAAMyfhGsAACAASURBVACAlHgEAAAAQEo8AgAAACAlHgEAAACQEo8AAAAASIlHAAAAAKTEIwAAAABS4hEAAAAAKfEIAAAAgJR4BAAAAEBKPAIAAAAgJR4BAAAAkBKPAAAAAEiJRwAAAACkxCMAAAAAUuIRAAAAACnxCAAAAICUeAQAAABASjwCAAAAICUeAQAAAJASjwAAAABIiUcAAAAApMQjAAAAAFLiEQAAAAAp8QgAAACAlHgEAAAAQEo8AgAAACAlHgEAAACQEo8AAAAASIlHAAAAAKTEIwAAAABS4hEAAAAAKfEIAAAAgJR4BAAAAEBKPAIAAAAgJR4BAAAAkBKPAAAAAEiJRwAAAACkxCMAAAAAUuIRAAAAACnxCAAAAICUeAQAAABAal/Ho2azGe+8806Uy+WN/3uaRqNRWH/58uUXsFMAAACA/Wlfx6O5ubmo1WrbuubIkSOF46NHj+7klgAAAAAOlH0bjxqNRkxPT2/7ukePHhWO19bWdmpLAAAAAAfOvoxHzWYzLl68+EzXmjwCAAAA6Ny+jEe3bt2K5eXlZ7rW5BEAAABA5/ZdPKrX63Hz5s1nvt7kEQAAAEDn9lU8Wl1djXffffe57mHyCAAAAKBz+yoeTU5OFh5Xm5yc3PY9TB4BAAAAdO6lvd5Ap+7cuRMLCwsbx+Pj43Hy5Mlt3+dZJo8WFxdjfX09enp6Nn49fvx4DAwMbPvzAQAAAPaTfRGPVlZWYmJiYuO4Wq3GyMhINBqNbd9ru5NHt2/fjunp6cK5arUaU1NT2/5sAAAAgP2m6x9bazabcfXq1cK5H//4x898v+1MHi0uLraEo0qlElNTU1EqlZ55DwAAAAD7RdfHo3v37kWtVts4/ulPfxp9fX3PfL9OJ4/q9XpcunSpcK5arcatW7eEIwAAAODQ6Op4VK/XC4+rDQ8Px+nTp5/rnp1MHtXr9RgaGiqcM3EEAAAAHEZd+86jZrMZ77777sZxf39/XLhw4bnv+7TJo3bh6Mk7jroxHB071rPXW4Dn5u8xPD8/R/D8/BwBQHtdG4/+/u//PpaXlzeOJyYmore397nvu9XkUbtwNDo6GufPn+/KcAQAAACw27oyHi0uLsbs7OzG8fDwcAwODu7IvbPJo3bhaHx8PEZGRnbkcwEAAAD2o65759Hq6mrcuHFj47i/vz+uXLmyY/dvN3m0tLTUduJIOAIAAAAOu66bPJqcnCw8rvbRRx/t6CNjmyePHjx4EAsLCy3rXnnllR37zN308OH6C/kc7wBgN72ov8d7zc8Ru8nPETy/w/JzBABPdPq/rbpq8mhxcbEQciYnJ6NcLu/oZ2yePPpqqPqqiYmJaDQaO/rZAAAAAPtN18SjlZWVuHTp0sZxpVKJM2fO7PjnbJ482sq1a9ei2Wzu+B4AAAAA9ouueWztV7/6VeG4VqvFqVOntn2fzZNKm6eHNk8ePTE6Ohrf//734+zZs4U9zM3NefcRAAAAcGh1zeRRT8+LeYdBu8mj0dHRGBsbi3K5HJOTk4Xfm56e9vgaAAAAcGh1TTxaX38xLyjcPHlUqVRibGxs4/jMmTPR399fWOPxNQAAAOCw6prH1k6cOBHDw8PbumZtba3lm9Kedo/Nk0cnTpwoHJdKpbh+/XoMDQ1tnKvVanHv3r146623trU/AAAAgP2ua+LRwMBADAwMbOuaRqPREo/ee++9La/ZPHm0trbWdi/Dw8MxOzu7cW5iYiJOnjy549/+BgAAANDNuuaxtRdl8+TR0aNH2667cuWKx9cAAACAQ+/QxaNOJo8ivnx8bWJionDuybevAQAAABwWhy4edTp5FBExODjY8g4l374GAAAAHCaHLh51Onn0xIULF1oeX7t48aLH1wAAAIBD4dDFo+1MHkVE9Pb2xuXLlwvnlpeX49atWzu+NwAAAIBuc+ji0XYnjyIiTp8+HdVqtXDu5s2bUa/Xd3RvAAAAAN3mpb3ewPMol8vbfv/Qs1wTEXHjxo24cePGtq8DAAAA2M8O3eQRAAAAAJ0TjwAAAABIiUcAAAAApMQjAAAAAFLiEQAAAAAp8QgAAACAlHgEAAAAQEo8AgAAACAlHgEAAACQEo8AAAAASIlHAAAAAKTEIwAAAABS4hEAAAAAKfEIAAAAgJR4BAAAAEBKPAIAAAAgJR4BAAAAkBKPAAAAAEiJRwAAAACkxCMAAAAAUuIRAAAAACnxCAAAAICUeAQAAABASjwCAAAAICUeAQAAAJASjwAAAABIiUcAAAAApMQjAAAAAFLiEQAAAAAp8QgAAACAlHgEAAAAQEo8AgAAACAlHgEAAACQEo8AAAAASIlHAAAAAKTEIwAAAABS4hEAAAAAKfEIAAAAgJR4BAAAAEBKPAIAAAAgJR4BAAAAkBKPAAAAAEiJRwAAAACkxCMAAAAAUuIRAAAAACnxCAAAAICUeAQAAABASjwCAAAAICUeAQAAAJASjwAAAABIiUcAAAAApMQjAAAAAFLiEQAAAAAp8QgAAACAlHgEAAAAQEo8AgAAACAlHgEAAACQEo8AAAAASIlHAAAAAKTEIwAAAABS4hEAAAAAKfEIAAAAgJR4BAAAAEBKPAIAAAAgJR4BAAAAkBKPAAAAAEiJRwAAAACkxCMAAAAAUuIRAAAAACnxCAAAAICUeAQAAABASjwCAAAAICUeAQAAAJASjwAAAABIiUcAAAAApMQjAAAAAFLiEQAAAAAp8QgAAACAlHgEAAAAQEo8AgAAACAlHgEAAACQEo8AAAAASIlHAAAAAKTEIwAAAABS4hEAAAAAqZf2egMAAMCLc+xYz15vgQPs4cP1vd4CsAtMHgEAAACQEo8AAAAASIlHAAAAAKTEIwAAAABSXpgNAACH3C/+7xt7vQX2oTf+3y/2egvAC2LyCAAAAICUeAQAAABASjwCAAAAICUeAQAAAJASjwAAAABIiUcAAAAApMQjAAAAAFLiEQAAAAAp8QgAAACAlHgEAAAAQEo8AgAAACAlHgEAAACQEo8AAAAASIlHAAAAAKTEIwAAAABS4hEAAAAAKfEIAAAAgJR4BAAAAEBKPAIAAID/394dhMZ5nf0Cf/qRzaiYGpSYQBgzwRSlXpgiAlMSVBcTSDrEbmjIwgPJQqjkE4TYzoWIxOJmIzuol69yzQVjKrTIQmoxhdQxrkqNia8+TAaSwfgjDkMIiA7NJha4FfUscxfBrl/NHHnGlj0z0u+3CefMeUfPwm80+s9zzgskCY8AAAAASBIeAQAAAJAkPAIAAAAgSXgEAAAAQJLwCAAAAIAk4REAAAAAScIjAAAAAJKERwAAAAAkCY8AAAAASBIeAQAAAJAkPAIAAAAgSXgEAAAAQJLwCAAAAIAk4REAAAAAScIjAAAAAJKERwAAAAAkCY8AAAAASBIeAQAAAJAkPAIAAAAg6ZFuF9CplZWVuH79egwMDMTAwEAMDg52uyQAAACATavnw6NGoxGXLl2Kv/zlL3H+/PmWa8rlcuzbty+efvrpyOVy675frVaLAwcO3B6XSqWYmZnZ0JoBAAAANoueDo+WlpZiamoqlpeX1103Pz8f8/PzUSwW49ixY5HP55NrBwYGMuPt27dvSK0AAAAAm1HPnnk0NzcXY2Njdw2O7lSpVOK5556LarWaXHPz5s3M+MaNG/dcIwAAAMBm15OdR9VqNaanp5vmy+Vy7N+/P77//e/HwMBAfP7551GpVGJ+fj6z7uDBg3HhwoWWHUg6jwAAAADa13PhUaPRiHfeeSczVygU4uTJkzE0NJSZz+fz8cILL8T+/fvj4MGDmdeOHj0aH3zwQdP76zwCAAAAaF/PbVv74osvmraqzc7ONgVHdxoeHo6FhYXMXKVSabl9TecRAAAAQPt6Ljz66KOPMuPx8fF1D8C+ZXh4OMrlcmbuypUrTet0HgEAAAC0r+fCo8uXL2fGL7/8ctvX7t69OzOu1+tNa3QeAQAAALSv5848Wrtl7dFHH2372j179tx1zb10Hi0uLsbq6mps27bt9n937NgRw8PDbdcGAAAA0I96Ljyq1WpRq9VuP00tl8u1fe3Vq1fvuqbTzqO5ubmmJ7+VSqU4fvx423UBAAAA9KueC48i4vbh2O2cdXSna9euZcatru+k82hxcbEpOCoWi3H8+PGOQi0AAACAftVzZx7dq3q9HvPz85m5H/7wh03r2u08qlarcejQocxcqVSK06dPC44AAACALWPThEdHjx7NjAuFQoyMjDSta6fzqFqtxsGDBzNzOo4AAACArWhThEcnTpyISqWSmZucnGy59m6dR62CIx1HAAAAwFbVk2cedWJpaSlOnTqVmSuVSi27jiLW7zxqFRyNj4/H66+/3rPB0WOPbet2CXDf/DuG++c+gvvnPoL75z6Czamvw6OlpaUYGxvLzBUKhWTXUUS686hVcDQxMRGjo6MbVC0AAABA/+nbbWtnzpxpGRzNzs7G4OBg8rpWnUdLS0stO44ERwAAAMBW15edR3NzczE9PZ2ZuxUc5fP5da9d23l07dq1OH/+fNO6J5544v4LBQAAAOhzfRUeNRqNePfdd5vCnnaDo4jmzqPl5eWW6yYnJ2PPnj0xNDR07wU/BN98s/pQfo69yzxID+vfcbe5j3iQ3Edw/9xHcP+2yn0Em0W7vxP6ZttavV6/7+AoornzaD3Hjh2LRqPRUZ0AAAAAm0lfhEf1ej3GxsaagqNSqRQffvhh28FRRHPn0S3j4+Nx9uzZzFylUomFhYXOCwYAAADYJHo+PKpWq/Hcc881bS8bHx+P48ePRy6X6+j9WnUejY+Px+HDh2NoaCimpqYyr01PT0etVuu8cAAAAIBNoKfDo2q12vQUtIiIqampOHz4cMfBUURz51GxWIzDhw/fHr/44otRKBQya2xfAwAAALaqng2PUsHRwsJCvPLKK/f8vms7j3bt2pUZ53K5eP/99zNzlUolzp07d88/EwAAAKBf9WR4VK/Xk8HR8PDwfb332s6jGzduNK0ZHh6OcrmcmZucnLR9DQAAANhyei48ajQacfTo0ab5Cxcu3HdwFNHcebR9+/aW695++23b1wAAAIAtr+fCo3PnzkWlUsnMzc7OdvREtfW003kU8d32tcnJycycp68BAAAAW80j3S7gTo1GI2ZnZ5vmL168GBcvXuz4/fL5fIyOjmbm2u08iogYGRmJcrkc8/Pzt+emp6fj2WefjaGhoY7rAQAAAOg3PRUeXbp0KZaXl5vm7wxvOrH23KKI9juPbnnjjTfi8uXLmbrefPPN+PDDD+/paW8AAAAA/aSntq19/fXXD/xndNJ5FBExODgYR44cycwtLy/H6dOnN7w2AAAAgF7TU+FRvV5/4D+j086jiIgXXnghSqVSZu7UqVNRrVY3tDYAAACAXtNT29bee++9eO+99x7ozxgaGopardbxdTMzMzEzM/MAKgIAAADoXT3VeQQAAABAbxEeAQAAAJAkPAIAAAAgSXgEAAAAQJLwCAAAAIAk4REAAAAAScIjAAAAAJKERwAAAAAkCY8AAAAASBIeAQAAAJAkPAIAAAAgSXgEAAAAQJLwCAAAAIAk4REAAAAAScIjAAAAAJKERwAAAAAkCY8AAAAASBIeAQAAAJAkPAIAAAAgSXgEAAAAQJLwCAAAAIAk4REAAAAAScIjAAAAAJKERwAAAAAkCY8AAAAASBIeAQAAAJAkPAIAAAAgSXgEAAAAQJLwCAAAAIAk4REAAAAAScIjAAAAAJKERwAAAAAkCY8AAAAASBIeAQAAAJAkPAIAAAAgSXgEAAAAQJLwCAAAAIAk4REAAAAAScIjAAAAAJKERwAAAAAkCY8AAAAASBIeAQAAAJAkPAIAAAAgSXgEAAAAQJLwCAAAAIAk4REAAAAAScIjAAAAAJKERwAAAAAkCY8AAAAASBIeAQAAAJAkPAIAAAAgSXgEAAAAQJLwCAAAAIAk4REAAAAAScIjAAAAAJKERwAAAAAkCY8AAAAASBIeAQAAAJAkPAIAAAAgSXgEAAAAQJLwCAAAAIAk4REAAAAAScIjAAAAAJKERwAAAAAkCY8AAAAASBIeAQAAAJAkPAIAAAAgSXgEAAAAQJLwCAAAAIAk4REAAAAAScIjAAAAAJKERwAAAAAkPdLtAgAAAKCfPPbYtm6XwCb2zTer3S6hic4jAAAAAJKERwAAAAAkCY8AAAAASBIeAQAAAJAkPAIAAAAgydPWAAAA4D793//1UbdLoA+98V/7u11CW3QeAQAAAJAkPAIAAAAgSXgEAAAAQJLwCAAAAIAk4REAAAAAScIjAAAAAJKERwAAAAAkCY8AAAAASBIeAQAAAJAkPAIAAAAgSXgEAAAAQJLwCAAAAIAk4REAAAAAScIjAAAAAJKERwAAAAAkCY8AAAAASBIeAQAAAJAkPAIAAAAgSXgEAAAAQJLwCAAAAIAk4REAAAAAScIjAAAAAJKERwAAAAAkCY8AAAAASBIeAQAAAJAkPAIAAAAgSXgEAAAAQJLwCAAAAIAk4REAAAAAScIjAAAAAJKERwAAAAAkCY8AAAAASBIeAQAAAJAkPAIAAAAgSXgEAAAAQJLwCAAAAIAk4REAAAAAScIjAAAAAJKERwAAAAAkCY8AAAAASBIeAQAAAJAkPAIAAAAgSXgEAAAAQJLwCAAAAIAk4REAAAAAScIjAAAAAJKERwAAAAAkCY8AAAAASBIeAQAAAJAkPAIAAAAgSXgEAAAAQNIj3S6gUysrK3H9+vUYGBiIfD7f7XIAAAAANrW+CI9qtVr8/ve/j8uXL8fy8nLmtWKxGPv37499+/bF4OBgW+914MCB2+NSqRQzMzMbXjMAAADAZtDT4VGj0YiFhYWYnp5OrqlUKlGpVKJQKMTk5GSMjIys+54DAwOZ8fbt2zekVgAAAIDNqKfPPHr33XfXDY7utLy8HGNjY7G0tLTuups3b2bGN27cuOf6AAAAADa7ng2Pzpw5E+fPn8/MFYvFmJ2djbNnz8aFCxdiYmIiCoVCZs3Y2FjUarXk++o8AgAAAGhfT4ZH9Xo9JicnM3Pj4+PxwQcfxMjISAwNDUU+n4/R0dGYnZ2NUqmUWXvs2LHke+s8AgAAAGhfT4ZHc3NzmXG5XI7Dhw+3XJvP5+Ott97KdCBVKpWoVqst1+s8AgAAAGhfz4VHjUYj5ufnM3Ojo6PrXpPP5+PIkSOZuRMnTrRcq/MIAAAAoH09Fx598cUXmXGpVIp8Pn/X6/bu3ZsZVyqVWFlZaVqn8wgAAACgfY90u4C1Pvroo8z4mWeeaeu6XC4X5XI507V07dq1GBkZyay7l86jxcXFWF1djW3btt3+744dO2J4eLit2gAAAAD6Vc+FR1999VVmvGfPnrav3b17d2b82WefNYVHnXYezc3NxfT0dGauVCrF8ePH264LAAAAoF/13La1SqWSGa8Ne9bz+OOPZ8b/+Mc/mtZ00nm0uLjYFBwVi8U4fvx45HK5tusCAAAA6Fc9FR61OqOonfOObtmxY0dmvLaLKaL9zqNqtRqHDh3KzJVKpTh9+rTgCAAAANgyeio8un79+oa+39oupoj2Oo+q1WocPHgwM6fjCAAAANiKeu7MozsVi8WO1j/66KN3XXO3zqNWwdGtM44ER80++z+vdbsE6Gs7//f/dLsE6Hv//eZ/d7sE6Ht7/9+lbpcAfe+N/9rf7RLggenp8GjXrl0drR8cHLzrmvU6j1oFR+Pj4/H666/3bHD02GPbul0C3Df/juH+uY/g/rmP4P65j+D+9eJ91NPh0YOQ6jxqFRxNTEzE6OjoQ6sNAAAAoNf01JlHD0OrzqOlpaWWHUeCIwAAAGCr2/KdR9euXYvz5883rXviiSceVkkAAAAAPaunO4/m5+c7Wl+r1e66Zm3n0fLycst1k5OTbb0fAAAAwGbW0+HRg7C282g9x44di0aj8QCrAQAAAOhtPRUeDQ0Nbej7lcvlprm1nUe3jI+Px9mzZzNzlUolFhYWNrQmAAAAgH7SU+FRREShUMiM6/V629devXo1M/7BD37QtKZV59H4+HgcPnw4hoaGYmpqKvPa9PS07WsAAADAltVz4dHu3bsz49SZRK2srq5mxk899VTTmrWdR8ViMQ4fPnx7/OKLLzYFWLavAQAAAFtVz4VHzz//fGb85Zdftn3txx9/nBk/+eSTTWvWdh7t2rUrM87lcvH+++9n5iqVSpw7d67tOgAAAAA2i54Lj9YGPmsDoZR6vR6VSiUz1+oMpbWdRzdu3GhaMzw83HRekqevAQAAAFtRz4VHQ0NDUSwWb48rlUosLi7e9bq5ubnMeGJiouW6tZ1H27dvb7nu7bfftn0NAAAA2PJ6LjyKaH5K2szMzLoHZy8tLcX8/Hxm7tlnn225tp3Oo4jvtq9NTk5m5jx9DQAAANhqejI82rt3b6b7aHl5OcbGxmJpaSmzrtFoxJkzZ2JsbCwzPzEx0XLLWkT7nUcRESMjI01BlqevAQAAAFvJ97799ttvu11EK7VaLQ4cONDytXK5HDdu3Ijz5883vVYsFuP06dORy+Xaet9SqRQzMzPJOlZWVqJcLmee+lYoFOLDDz9M/gwAAACAzaInO48ivjv7aHZ2tuncoYiI+fn5lsFRqVSKY8eOrRvqdNJ5FBExODgYR44cycwtLy/H6dOn170OAAAAYDPo2fAo4rttY/Pz801bx1qZmJiI48ePRz6fX3ddu2ce3emFF16IUqmUmTt16lRUq9W7XgsAAADQz3p229pajUYjPv300/jXv/4Vq6ursW3btlhdXY09e/bEzp07bSEDAAAAeAD6JjwCAAAA4OHr6W1rAAAAAHSX8AgAAACAJOERAAAAAEnCIwAAAACShEcAAAAAJAmPAAAAAEgSHgEAAACQJDwCAAAAIEl4BAAAAECS8AgAAACAJOERAAAAAEnCIwAAAACSHul2AbCZrKysxPXr12NgYCDy+Xy3y4G+t7KyEjdv3oybN2/Gzp07I5fLdbsk6At3/j4aGBiIwcHBbpcEfader8fNmzfj0UcfdQ8BW973vv3222+7XQT0s1qtFr///e/j8uXLsby8nHmtWCzG/v37Y9++fT50wD147bXXolKpRETE2bNnY2hoqMsVQW9qNBpx6dKl+Mtf/hLnz59vuaZcLse+ffvi6aefFsRCC7fuo/n5+du/e+5UKpXil7/8pXsI7lGj0YjXX389c3/VarUuVkQnhEdwjxqNRiwsLMT09PRd1xYKhZicnIyRkZGHUBlsDouLi3Ho0KHb4wsXLujogxaWlpZiamqq6QuMlGKxGMeOHXM/wR2q1Wq88847bd1HxWIxjh496gsN6NDc3FzT307Co/4hPIJ7dOTIkeS3uymzs7MCJGhDtVqNgwcPZuZ0HkGzVh/E27WwsBDDw8MbXBH0n6WlpRgbG+v4Op/roH21Wi0OHDjQcp7+IDyCe3DmzJmYnJzMzBWLxfjVr34VO3bsiIGBgfjrX/8af/jDH5q+wfIHMKyvVXAUofMI1krdK+VyOfbv3x/f//73Y2BgID7//POoVCoxPz/ftNZ9xVZXr9fjueeea5ofHx+Pn//857fHf/7zn+PUqVNN63yug7trNBrx0ksvtezsEx71D+ERdKjVh4zx8fE4fPhwy7W/+c1vMh1KxWIxPvjggwdeJ/SjtVvV7uQDOvxbqw/ihUIhTp48mbxPWoVNfiex1a3tJC8UCjE7O9syVK3X6zE2Npa579xDcHcnTpxoGb5GCI/6yX90uwDoN3Nzc5lxuVxuGRxFROTz+XjrrbeiUCjcnqtUKlGtVh9ojdBvGo1GnDhxIhkcRUQMDAw8xIqgt33xxRdN3+DOzs6uG7AODw/HwsJCZs7vJLayer3edATByZMnk914+Xw+ZmdnM3OVSsUfv7COarWaDI7oL8Ij6ECj0Whq+x8dHV33mnw+H0eOHMnMnThxYsNrg361uLgYL7300l0/WNy8efMhVQS976OPPsqMx8fH29p+Njw8HOVyOTN35cqVDa0N+sUf//jHzLhUKt21wzWfzzfdQ1evXt3w2mAzWFlZiXfeeafbZbBBhEfQgS+++CIzLpVKbX1Y37t3b2ZcqVRiZWVlQ2uDflOv1+O1116LQ4cONXVQlMvlKJVKmTmdR/Bvly9fzoxffvnltq/dvXt3Zlyv1zekJug3a7vuXn311bauKxaLmfG1a9c2rCbYTNY+CXRqaqqL1XC/Hul2AdBP1n7T+8wzz7R1XS6Xi3K5nOlaunbtmid0sKV98sknUalUmuanpqbilVdeaerY03kE/7Y2cH300UfbvnbPnj0bXQ70pWPHjsU333wTX331Vfz973+Pxx57rK3rVldXM+MbN248iPKgr505cyazLXRiYsLvnz4nPIIOfPXVV5lxJ/8DXPtN72effSY8Ykvbtm1bZlwul2N0dPR2N9/27dszr+s8gn+r1WpRq9VuP00tl8u1fa0tNvCdfD4f+Xw+hoeHO7pubeff888/v5FlQd+r1+uZJ1OXSqUYHR11PlifEx5BB9Z2SXTyx+zjjz+eGf/jH//YkJqgX9365rZUKsV//ud/Np0zsfabXJ1HkHXrnmln+/Sd1m6x6fR62MpqtVrTIdtPPvlkl6qB3tNoNOLo0aOZubfeeqtL1bCRhEfQplZnFHXygXvHjh2Z8douJthqfvKTn8TZs2eTh5PqPIKNV6/Xmx788MMf/rBL1UB/qdfr8eabb2bmyuXyXQ/Zhq3k3LlzmS/cf/vb3/qSYpMQHkGbrl+/vqHv1+qsF9hK7vZBQucRbLy13wYXCgVbqGEdKysrce3atbh48WJT8BoR8cYbb3ShKuhN1Wo1s12tXC7HCy+80MWK2EjCI7hHa5+0cTedHGYK6DyCjXbixImmLy7u/JAP/NuZM2fWvT/K5XK88cYbMTg4+BCrgt7VaDTinXfeuT0uIsuFSwAABdhJREFUFArC1U3mP7pdAPSrXbt2dbTehwvojM4j2DhLS0tx6tSpzFypVNJ1BAlrn6i21toHocBW9+tf/zrzJNDJyUl//2wywiMAepLOI9gYS0tLMTY2lpkrFAq6jmAd9Xp93dcnJyejXC7H0tLSQ6oIetfi4mJmW2e5XPblxCYkPAKgJ+k8gvt35syZlsHR7Oysb4RhHfv374+zZ8/GlStX4sqVK3H27NkYHx/PrFleXo6xsTEBElvayspKzMzM3B4XCoV4++23u1gRD4rwCICepPMI7s/c3FxTd9Gt4MiTb2B9w8PDMTQ0FLlcLnK5XAwNDcXhw4fjwoULUSgUMmvHxsZaPpUXtoKpqanMdrWTJ09GLpfrYkU8KMIjuEetnrixnlqt9oAqgc1J5xHcm0ajEUeOHInp6enMvOAI7l8+n4+TJ082zf/pT3/qQjXQXYuLi3H+/Pnb46mpqRgaGupiRTxIwiMAepLOI+hcvV6Pd999N/NhPkJwBBtpaGioaQvbH/7why5VA91Rr9fj0KFDt8fFYjFefPHFLlbEg/ZItwuAfrHRKXq5XN7Q94PNRucRdKZer8fY2Fhm+0DEd09VO378uG0EsIF++tOfZp5guLy8HCsrK84SY8v45JNPMuNKpRI//vGPO36ftX9j2a3Ru3QeQQfW7nG/25M47nT16tXM+Ac/+MGG1ASblc4jaF+1Wo3nnnuuKTgaHx8XHMED8NhjjzXN+ZKDrWTbtm3dLoGHTOcRdGD37t2ZD+bLy8ttbwFYXV3NjJ966qkNrQ02G51H0J5qtRoHDx5smp+amopXXnmlCxVB72s0GnHp0qWI+K5jIp/Px+jo6H29p99TbCVr/7Zh8xMeQQeef/75zDkSX375ZYyMjLR17ccff5wZP/nkkxtaG2w2Oo/g7lLB0cLCQgwPD3ehIugPf/vb3zLntUREHDx4sO0uvW+++aZpbufOnRtSG/SDXbt2dXwMx40bN5rO5HOUR/8QHkEH1gY+H3/8cVvfUtXr9ahUKpk5TyKA9ek8gvXV63XBEdyjVkHPp59+2vaXgleuXMmMi8Wi7aFsKcPDwx3/rqnVak3h0XvvvbeRZfEAOfMIOjA0NBTFYvH2uFKpxOLi4l2vm5uby4wnJiY2vDbYbHQeQVqj0YijR482zV+4cEFwBG3I5XJNHQ+/+93v2rq2Xq/H9PR0Zu5nP/vZhtUG0IuER9ChtR80ZmZm1j04e2lpKebn5zNzzz777AOpDTYTnUeQdu7cuaaO1tnZ2bbP4QMi9u3blxlXKpWmL/zWuvVUwzsVCoX4xS9+seH1AfQS29agQ3v37o1isXj7Q/vy8nKMjY3F5ORkptW50WjEuXPnYnJyMnP9xMSELWvQBp1H0Fqj0YjZ2dmm+YsXL8bFixc7fr+NOCgY+tHIyEiUy+XMl3zT09Pxz3/+M1599dUYHBy8Pd9oNOLTTz+Nqamppqcavv/++5m1AJuR8Ag6lMvl4ujRo3HgwIHbc7cCpIjvOpNaHQYX8d1++FbnUwDNdB5Ba5cuXWr64zUimrpc2+WwUrayt99+O7766qtMJ9+pU6fi1KlTUSwWY9euXcnPdRHffSloqyiwFdi2BvdgaGgoZmdno1AoNL02Pz/f8gNGqVSKY8eOOUwR2qTzCFr7+uuvu10CbBq5XC5Onz4dpVKp6bVKpZL8XBfx3VZRXXvAViE8gns0MjIS8/PzbX1jOzExEcePH3cWBXRA5xG0tt45e0DncrlczMzMxNTUVMsvBtcql8tx4cKFtp/MBrAZfO/bb7/9tttFQL+7tQ/+X//6V6yursa2bdtidXU19uzZEzt37tRtBADQJ+r1enzyyScREXHt2rXI5/Oxbdu22LVrV/zoRz/yuQ7YkoRHAAAAACTZtgYAAABAkvAIAAAAgCThEQAAAABJwiMAAAAAkoRHAAAAACQJjwAAAABIEh4BAAAAkCQ8AgAAACBJeAQAAABAkvAIAAAAgKT/D1nSUVXDa/K4AAAAAElFTkSuQmCC;" parent="1" vertex="1">
          <mxGeometry x="399" y="284.84" width="270.59" height="212.16" as="geometry" />
        </mxCell>
        <mxCell id="smteuxdM7ORI9zOPRPf1-8" value="" style="shape=image;verticalLabelPosition=bottom;labelBackgroundColor=default;verticalAlign=top;aspect=fixed;imageAspect=0;image=data:image/png,iVBORw0KGgoAAAANSUhEUgAABJsAAAN0CAYAAAATQinEAAAgAElEQVR4nOzdUWic15k38Gc/cqMUgUB2KQRlJ5ii0hKz+HMYIz6RUlJiC1ddCqKVoL0QE2JBUe3ArrAt1nQZuzgLVVIKxljoYgNjgm/cpCgJa0IdfYSIZnVhg9MhmIw9rChxBAJB5jLfRZA/vzMjaUY+kiXn94MQn6PznjkKEsR/nvO8//DVV199FQAAAACQwP961AcAAAAA4PEhbAIAAAAgGWETAAAAAMkImwAAAABIRtgEAAAAQDLCJgAAAACSeeJRH4Cd5969lUd9BAAAAGAH2Lu3s+1nVDYBAAAAkIywCQAAAIBkhE0AAAAAJCNsAgAAACAZYRMAAAAAyQibAAAAAEhG2AQAAABAMsImAAAAAJIRNgEAAACQjLAJAAAAgGSETQAAAAAkI2wCAAAAIBlhEwAAAADJCJsAAAAASEbYBAAAAEAyTzzsBktLS/HXv/41/va3v8WdO3eiq6srlpeX49lnn43vfve7cfDgwejo6Nj0/nNzc/Hpp5/GzZs37+/d1dUV+Xw+nnvuueju7n6o86fav1qtxszMzP3ne3p6YnR09KHOBgAAALDb/MNXX3311WYerNVqcfny5Th//vy663K5XJw4cSIOHz7c1v7lcjnGx8ejUqmsu65YLMbRo0fbDrRS71+tVuOFF164Px4ZGYkzZ860daad4t69lUd9BAAAAGAH2Lu3s+1nNnWNrlqtxj//8z9vGDRFRFQqlfjNb34TJ06ciFqt1tL+V65cicHBwQ2DoIiIycnJOHXqVMt7b9X+X375ZWa8vLzc8nkAAAAAHhdtX6Or1WpRKBQagpp8Ph8//OEPo7OzM/7nf/4n3nnnncya2dnZiIiYmppad/+FhYWYnJxsmB8bG4unnnoqVlZW4s0339zU3lu5/5NPPpkZd3V1bXgWAAAAgMdN22HTxYsXG4Km119/veGa3MsvvxwXL16MCxcu3J+bnZ2NF198cc0rdUtLS3Hy5MnMXD6fj6mpqUzvpOHh4YYrfBvtvdX7q2wCAAAAaPMaXbVazYRHERHT09NNA5iOjo44fvx4jI2NZebXqw564403MkHWwMBAXLx4saFJd0dHR4yOjkaxWGzYe73rblu5v8omAAAAgDbDpv/6r//KjAcGBqK/v3/dZ15++eXMuFKpRLlcblhXq9XinXfeycwdO3Zs3cbcQ0NDMTAwkNn7+vXrTddu9f4qmwAAAADaDJtu3ryZGf/yl7/c8JmOjo4YGRnJzH322WcN6z755JOGqqPe3t4N9z927Fhm/N577zVdt9X7q2wCAAAAaDNs6uvri4mJifvVPv/4j//Y0nP1VT4rKysNaz744IOGz2pFfWA0OzsbS0tL277/ZiqbqtVqlMvlzD/N9gYAAADYLdpqED40NHT/z628+W1VfYCyf//+hjV37tzJjA8dOtTy/iMjI1EqlTJ71fdh2ur9261sWlhYiOHh4czcwMBAnDt3ruVzAQAAAOw0bVU2bUa5XI75+fnM3J49exrWzc7OZsb14c16enp6MuPPP/982/dvp7Jpbm6uIWjK5/Nx7ty5dXtIAQAAAOx0Wxo2LS0txfj4eGZuYmKioSqo2dWx+jXr6ezszIwXFxe3df+I1iubFhYWolAoZOZW34onaAIAAAB2uy0Jm6rVaszMzERfX1+mKXdENFT0RER88cUXmXEul2vr8+rDoGq1uq37R7RW2dTs6pyKJgAAAOBx0lbPpvVcuXIlPvzww4braqsGBgbilVdeaSlUabV596pnnnmmrfVbsf9GlU3r9WjaaUHT3r2dGy8CAAAAaCJZZdOtW7fWDJpyuVwcO3asoffR42S9yiYVTQAAAMA3RbKwab2G2JVKJQYHB+O3v/1t0/5Jj4O1KpuaBU0TExN6NAEAAACPpWTX6J599tn42c9+Ft/+9rcj4us3tl26dCnzJrpSqRQffvhhlEqlthp07wbNKpvm5uYamoGPjY3F6Ojodh4NAAAAYNskC5vqA5Te3t7o7++PK1euxOTk5P35SqUSxWIxpqamUn30jlBf2bTWtcIjR45s15EAAAAAtl2ysGktQ0NDsbKyEufPn78/Nzs7G7/85S/jwIEDW/3x26a+sqn+LXyrxsfH4+rVqzv6Ct29eyvb9lmakbMVtvNnGAAA4HG2mb+3J+vZtJ7R0dHI5/OZuQ8++GDN9bdv325r/xs3brS1fiv2r69sWkulUolXX321rc8HAAAA2C22JWyKiPjJT36SGd+5c+f+n59++unM1x7s89SKzs5sylYfbG31/hGNlU2rxsbG4vXXX8/MlUqlWFhYaOsMAAAAALvBtoVN+/bty4wf7GfU7EpZrVZree/FxcXMeGUle4Vmq/ePaF7ZNDY2FsePH4/Dhw/HwMBA5msnT55s6wwAAAAAu0HLYVOtVotyuRzvvvtuzMzMxJUrV5IepD6MuXv3bsvP3rx5MzPev3//tu9fX9mUz+fj+PHj98evvPJK5uuVSiUuXrzY8hkAAAAAdoOWG4TfvXs3BgcH749zuVwMDQ21/EH1fZLqw5++vr5MtdNnn30Wvb29G+5bq9Ua3vpWf21uO/avr2yqr+Tq6emJYrGYeTPfhQsX4siRIy2d45vkf//Lfz7qI7CL/Pd//OpRHwEAAIAHtFzZtGfPnsy4Uqm01Xfoww8/zIyfffbZzLg+nCmVSi3t+/HHH2fG+Xy+6bW5rd6/vrJpeXm5Yc3Q0FBDv6fBwUHX6QAAAIDHRsthU3d3d0M10ttvv93SswsLCw3VQf/0T/+UGR84cCByudz98fz8fJTL5Q33vnTpUmb80ksvNV231fvXVzZ1dXU1XXf27NmGOW+nAwAAAB4XbTUI/9nPfpYZl0qlmJubW/eZarUaJ0+ezMzl8/k4cOBAw9oTJ05kxuPj41GtVtfce2ZmJvNmuVwuFwcPHlxz/Vbu30plU8T/v073oFb+OwIAAADsBm2FTf39/Q3VTYVCIa5cudJwFaxWq8W7774bL7zwQlQqlczXmlX3REQ8//zzmeqjSqUShUKhoQJpaWkpXnvttTh//nxm/sSJE02vuG3H/q1WNkVEHD16tOE6XbFYjKWlpTWfAQAAANgN/uGrr776qp0HlpaWYmRkpCFAivi66XdXV1csLy83XJtbdfny5aZVTasWFhZieHi4YT6Xy0VfX9+aew8MDMTU1NSG59+q/cvlcqaBervrIyJGRkbizJkzG34PW+3evZVt+6y9ezsb5jQIpx3NGoRv588wAADA46zZ39s30lZlU8TXvZtKpVJDhVNExOzsbJRKpaZhTS6Xi7feemvdoCni695K09PTDfOVSmXNvQcGBuLcuXMtnX+r9m+nsikiore3NyYmJjJzrtMBAAAAu13bYVPE14HTuXPnolgsZq6lrWVsbCyuXr0avb29Le3f398f165di5GRkXXX5XK5KBaLMTU1te71ue3Yv9WeTQ9qVmFVKBRcpwMAAAB2rbav0TVTLpfjxo0bERFx69at+P73vx8REfv374+nn366rSCoXq1Wi+vXr0dExMrKSnR2dsbKykocOnQoenp6HvboW77/buQaHbuJa3QAAABbZzPX6J5I8cG9vb0tVy21q6OjIw4fPrwle2/H/gAAAADfJJu6RgcAAAAAzQibAAAAAEhG2AQAAABAMsImAAAAAJIRNgEAAACQjLAJAAAAgGSETQAAAAAkI2wCAAAAIBlhEwAAAADJCJsAAAAASEbYBAAAAEAywiYAAAAAkhE2AQAAAJCMsAkAAACAZIRNAAAAACQjbAIAAAAgGWETAAAAAMkImwAAAABIRtgEAAAAQDLCJgAAAACSETYBAAAAkIywCQAAAIBkhE0AAAAAJCNsAgAAACAZYRMAAAAAyQibAAAAAEhG2AQAAABAMsImAAAAAJIRNgEAAACQjLAJAAAAgGSETQAAAAAkI2wCAAAAIBlhEwAAAADJCJsAAAAASEbYBAAAAEAywiYAAAAAkhE2AQAAAJCMsAkAAACAZIRNAAAAACQjbAIAAAAgGWETAAAAAMkImwAAAABIRtgEAAAAQDLCJgAAAACSETYBAAAAkIywCQAAAIBkhE0AAAAAJCNsAgAAACAZYRMAAAAAyQibAAAAAEhG2AQAAABAMsImAAAAAJIRNgEAAACQjLAJAAAAgGSETQAAAAAkI2wCAAAAIBlhEwAAAADJCJsAAAAASEbYBAAAAEAywiYAAAAAkhE2AQAAAJCMsAkAAACAZIRNAAAAACQjbAIAAAAgGWETAAAAAMkImwAAAABIRtgEAAAAQDLCJgAAAACSETYBAAAAkIywCQAAAIBkhE0AAAAAJCNsAgAAACAZYRMAAAAAyQibAAAAAEhG2AQAAABAMsImAAAAAJIRNgEAAACQjLAJAAAAgGSETQAAAAAkI2wCAAAAIJknHvUBAGjf3r2dj/oIPKbu3Vt51EcAAGCXU9kEAAAAQDLCJgAAAACSETYBAAAAkIywCQAAAIBkhE0AAAAAJONtdACPibv//uyjPgK7yNP/dvNRHwEAgMeUyiYAAAAAkhE2AQAAAJCMsAkAAACAZIRNAAAAACQjbAIAAAAgGWETAAAAAMkImwAAAABIRtgEAAAAQDLCJgAAAACSeeJhN1haWoq//vWvsbi4GDdv3oyurq5YXl6Orq6u6Onpie9+97tx8ODB6OjoaHnParUaX3755abO8+STT0ZPT0/L6+fm5uLTTz9tOHs+n4/nnnsuuru7Wz7zzMxM5nsfHR3d1PcAAAAAsFttOmxaWlqKP/3pT3H+/PkN1+ZyuSgUCjE0NNTS3qdPn475+flNnWtkZCTOnDmz4bpyuRzj4+NRqVSafr1UKkVERLFYjKNHj7YUlq0+s3oOAAAAgG+aTV2jq1arMTIy0lLQFBFRqVRicnIyfvWrX0WtVlt3ba1W23TQFBGxvLy84ZorV67E4ODgmkHTgyYnJ+PUqVMbnru+EquVcwAAAAA8btqubKpWq1EoFBqCmlwuF0eOHImnnnoqIiI+/PDDmJ2dzayZn5+PU6dOxdTU1Jr7f/HFF+0eKaOrq2vdry8sLMTk5GTD/NjYWDz11FOxsrISb775Zub7W/0+1jv3k08+2dY5AAAAAB5HbYdNv//97xuCpmKx2HBFbmhoKCYnJ6NYLGZCp9nZ2ejr61vzSt1HH32UGQ8MDMSLL74YKysr0dnZueG/v/Wtb6159qWlpTh58mRmLp/Px9TUVKY30/DwcFy+fDlTuTU7OxsvvvhiHD58uOneKpsAAAAA2gybyuVyQ7XS9PR09Pf3N13f3d0dU1NT0dXVlelnND09vWbYtLKykhkfO3Ysent72znmmt54441MUDYwMBDnzp1r6MfU0dERo6Oj0dnZmamCmpqaiueff75p/yaVTQAAAABt9mx65513MuORkZE1g6YH/frXv86MK5VKLCwsNF37l7/8JTPes2dPO0dcU61Wazj/sWPH1m38PTQ0FAMDA/fHlUolrl+/3nStyiYAAACAhwybfvGLX7T0XHd3d4yNjWXmbt++3XTtg83Bc7lc5nrbw/jkk08aqppaqZg6duxYZvzee+81XaeyCQAAAKDNa3T1vZraud72ve99LzPu7OxsWFMulzPjvr6+Nk63vg8++GBTe9d/j7OzszE5OdkQgm2msqlarTY8t2fPnmQBGwAAAMB2aytseuutt+LGjRvR2dmZqUBqxd/+9rfMuL43U0TE559/nhl///vfb+sz1nPnzp3M+NChQy0/OzIykuk5defOnYZAqN3KpoWFhRgeHs7MrfaQAgAAANit2gqbent771f6rPVWtrXU92hqVtn097//PTPet2/f/T9Xq9W4d+9e3L59O77zne/Et7/97bYqq+obm9eHQ+vp6enJjOtDsYj2Kpvm5uaiUChk5vL5fNNm5QAAAAC7SVth02ZVq9WGSqgf/OAHDetu3bqVGe/duzeuXLkS09PTDVf4Ir7u6fTzn/88fvrTn6579Wxpaalhrp2ravXB2OLiYsOaViubFhYWGoKmtd6KBwAAALDbbEvYdPr06cw4n883VAtFROaqWkREoVBoGjKtqlQqcf78+XjzzTdjcnJyzTfjffHFF5lxLpdr9egR0Rg2VavVhjWtVDY1uzqnogkAAAB4nLT1NrrNeO211xqqmurDp4jm1UfrBU316wqFQly5cqWl9e02Hn/mmWc2XLNRZdNaPZouXrwoaAIAAAAeG1ta2TQ3NxcXLlzIzI2NjTXttVTfwPtBxWIx9u/ff3/8+eefx6VLlxpCrMnJydi3b18cOHDgIU/evvUqm3ZbRdPevY39tGA38TMMm+f3BwCAh7VlYdNaTbBffvnlpuubNd1eq5dRb29v9Pf3x5UrV2JycjLztZMnT8bVq1e3PcRZq7KpWdA0MTERw8PDOzJoAgAAAHgYW3KNrlnQlMvl4uzZs2sGLIuLizEwMHB/3ErT7KGhoSgWi5m5SqUSH3/88UOcfnOaVTbNzc01BE1jY2MxOjoqaAIAAAAeS8krm2ZmZuL8+fOZuVwuF9PT002bgq8aHR2NiIipqam2Pm9oaCjefvvtzJW6999/f81m4VulvrLp1q1bMTs727DuyJEj23UkAAAAgG2XLGyq1Wrx6quvNrxRrpWg6WGNjIxkwqZSqRRnzpzZss9rpr6yaa3m5uPj44/kml877t1b2bbP0huErbCdP8OPit8dtso34fcHAIDWbebvHkmu0S0tLcWpU6cagqZ8Pr/lQVNE87fF1Wq1Ndffvn27rf1v3Lix4Zr6yqa1VCqVePXVV9v6fAAAAIDd4qHDpmq1GiMjIw1XxgYGBuLixYtbHjRFRNO32929e/f+n59++unM1+rfYreRzs5sipfP5xvW1Fc2rRobG4vXX389M1cqlWJhYaGtMwAAAADsBg8VNpXL5SgUCg1XxiYmJjZs7r3VHqw0anaO9Sqf6i0uLmbGKyuNVwyaVTaNjY3F8ePH4/Dhw5nm5xFfvzWvnTMAAAAA7AabDpsWFhZicHCwIWgqFottv22tVqtFuVyOcrkcc3NzMTc319ZZyuVyw1x9RVV92PNg5dNGbt68mRnv37+/YU19ZVM+n4/jx4/fH7/yyiuZr1cqlbh48WLLZwAAAADYDTYVNi0sLMTw8HDD/OXLl2NoaKjt/e7evRuDg4MxODgYhUIhCoVCW89/9tlnmXGza259fX3rPrOWWq3WcEWw/lpeRGNl0759+zLjnp6eKBaLmbkLFy40DcoAAAAAdqu2w6Zqtdo0aHrrrbfiwIEDmzrEnj17Guba6Wn03nvvZcY//OEPG9bUhz/1zczX8vHHH2fG+Xy+adVWfWXT8vJyw5qhoaGGIGxwcNB1OgAAAOCx0VbYVKvV4vTp0w3z165da9qku1Xd3d0NIczbb7/d0rPlcrmh8ujHP/5xw7oDBw5ELpe7P56fn2+pqujSpUuZ8UsvvdR0XX1lU1dXV9N1Z8+ebZjzdjoAAADgcdFW2PTnP/+54U1u09PTSd4495Of/CQzLpVKG/ZuqlarMT4+npkbGBhY8zwnTpzIjMfHx6Nara65/8zMTOb7zeVycfDgwaZrW6lsimh+na6V7xUAAABgN3ii1YW1Wi2mp6cb5t9///14//332/7gH/3oR9Hf339/fPTo0Xj77bcz4U6hUIixsbH45S9/Gd3d3ZmzXL9+PX7zm99k9szlcjE5ObnmZz7//PORy+XuNzWvVCpRKBTiD3/4Q6Yya2lpKd544424cOFC5vkTJ06s2fi81cqmtb7XYrEYpVIp830CAAAA7DYth03Xr19vePNcROu9j+rVX5vr6OiIs2fPRqFQyHzOhQsX4sKFC5HP52Pfvn2xvLzccG1u1fT09LphTUdHR/zud7/L9JyqVCoxODgYuVwu+vr61tx/YGAgDh8+vOberVY2rZ7j9OnTMTg4mDnHH//4xzhz5syazwEAAADsdC1fo1tcXEz6wSsrKw1zPT09USqVmr5Nbn5+PkqlUtMgKJfLxbVr11q6znfgwIGmFVqVSmXN/QcGBuLcuXPr7ttOZVNERG9vb0xMTGTmXKcDAAAAdruWw6b1ehttRmdnZ9P57u7uuHjxYhSLxUxD72ZyuVxMTEzE1atX2+ob1d/fH9euXYuRkZEN9y8WizE1NbXm9blV7VQ2rWr2Vr9CoRBLS0sbPgsAAACwE/3DV1999dWjPsR6qtVqfPTRR9HZ2RkrKyv3/33o0KEkjclX+z9FxJbsvxvdu9dYdbZV9u5tDB3/97/857Z9Prvff//HrxrmtvNn+FFp9rtz99+ffQQnYbd6+t9uNp3/Jvz+AADQumZ/99hIyz2bHpWenp4tDX06OjrW7cUEAAAAQOtavkYHAAAAABsRNgEAAACQjLAJAAAAgGSETQAAAAAkI2wCAAAAIBlhEwAAAADJCJsAAAAASEbYBAAAAEAywiYAAAAAkhE2AQAAAJCMsAkAAACAZIRNAAAAACQjbAIAAAAgGWETAAAAAMkImwAAAABIRtgEAAAAQDLCJgAAAACSETYBAAAAkIywCQAAAIBkhE0AAAAAJCNsAgAAACAZYRMAAAAAyQibAAAAAEhG2AQAAABAMsImAAAAAJIRNgEAAACQjLAJAAAAgGSETQAAAAAkI2wCAAAAIBlhEwAAAADJCJsAAAAASEbYBAAAAEAywiYAAAAAkhE2AQAAAJCMsAkAAACAZIRNAAAAACQjbAIAAAAgGWETAAAAAMkImwAAAABIRtgEAAAAQDLCJgAAAACSETYBAAAAkIywCQAAAIBkhE0AAAAAJCNsAgAAACAZYRMAAAAAyQibAAAAAEhG2AQAAABAMsImAAAAAJIRNgEAAACQjLAJAAAAgGSETQAAAAAkI2wCAAAAIBlhEwAAAADJCJsAAAAASEbYBAAAAEAywiYAAAAAkhE2AQAAAJCMsAkAAACAZIRNAAAAACQjbAIAAAAgGWETAAAAAMkImwAAAABIRtgEAAAAQDLCJgAAAACSETYBAAAAkIywCQAAAIBkhE0AAAAAJCNsAgAAACAZYRMAAAAAyQibAAAAAEhG2AQAAABAMsImAAAAAJIRNgEAAACQjLAJAAAAgGSETQAAAAAkI2wCAAAAIBlhEwAAAADJCJsAAAAASEbYBAAAAEAywiYAAAAAkhE2AQAAAJCMsAkAAACAZIRNAAAAACQjbAIAAAAgGWETAAAAAMkImwAAAABIRtgEAAAAQDLCJgAAAACSETYBAAAAkIywCQAAAIBkhE0AAAAAJCNsAgAAACAZYRMAAAAAyQibAAAAAEhG2AQAAABAMsImAAAAAJJ54mE3WFpair/+9a+xuLgYN2/ejK6urlheXo6urq7o6emJ7373u3Hw4MHo6OjY1P5zc3Px6aefNuydz+fjueeei+7u7oc6f6r9q9VqzMzMZL730dHRhzobAAAAwG6z6bBpaWkp/vSnP8X58+c3XJvL5aJQKMTQ0FDL+5fL5RgfH49KpdL066VSKSIiisViHD16tO0wayv2X30mImJkZKSt8wAAAAA8DjZ1ja5arcbIyEhLQVNERKVSicnJyfjVr34VtVptw/VXrlyJwcHBNYOgB01OTsapU6da2ncr9//yyy8z4+Xl5ZbPAwAAAPC4aLuyqVqtRqFQaAhqcrlcHDlyJJ566qmIiPjwww9jdnY2s2Z+fj5OnToVU1NTa+6/sLAQk5OTDfNjY2Px1FNPxcrKSrz55puZz1/9nPX23er9n3zyycy4q6trw7MAAAAAPG7aDpt+//vfNwRNxWKx4Yrc0NBQTE5ORrFYzIROs7Oz0dfX1/RK3dLSUpw8eTIzl8/nY2pqKtM7aXh4OC5fvpyprJqdnY0XX3wxDh8+vObZt3J/lU0AAAAAbV6jK5fLDdVK09PTa/Zi6u7ujqmpqYb+RdPT003Xv/HGG5kga2BgIC5evNjQpLujoyNGR0ejWCxm5qempta97raV+6tsAgAAAGgzbHrnnXcy45GRkejv79/wuV//+teZcaVSiYWFhcxcrVZr2P/YsWPrNuYeGhqKgYGBzL7Xr19vunar91fZBAAAAPCQYdMvfvGLlp7r7u6OsbGxzNzt27cz408++aSh6qi3t3fDvY8dO5YZv/fee03XbfX+KpsAAAAA2gyb6ns1tRLWrPre976XGXd2dmbGH3zwQWbc19fX0r71Z5idnY2lpaWGdVu9/2Yqm6rVapTL5cw/zfYGAAAA2C3aahD+1ltvxY0bN6KzszPm5+fb+qC//e1vmfHKykpmfOfOncz40KFDLe89MjISpVIps1d9H6at3r/dyqaFhYUYHh7OzA0MDMS5c+daPhcAAADATtNW2NTb23u/0me9t741U9+jqb6yqb7xeH14s56enp7M+PPPP29Ys9X7t1PZNDc3F4VCITOXz+fj3Llz6/aQAgAAANjp2rpGt1nVarWhEuoHP/jB/T83uzpWXzm0nvrganFxMTPe6v0jWq9sWlhYaAiaVt+KJ2gCAAAAdrttCZtOnz6dGefz+Uy10BdffJH5ei6Xa2v/+jCoWq1mxlu9f0RrlU3Nrs6paAIAAAAeJ1seNr322msNVU314VO9Vpt3r3rmmWfaWr8V+29U2bRWjyYVTQAAAMDjpK2eTe2am5uLCxcuZObGxsbaeovdbrFeZdNuq2jau7dz40Wwg/kZhs3z+wMAwMPasrBprSbYL7/88lZ95CO1VmVTs6BpYmIihoeHd2TQBAAAAPAwtuQaXbOgKZfLxdmzZx/bgKVZZdPc3FxD0DQ2Nhajo6OP7X8HAAAA4JsteWXTzMxMnD9/PjOXy+Vieno60xT8cVNf2XTr1q2YnZ1tWHfkyJHtOhIAAADAtksWNtVqtXj11VejVCpl5r8JQVNEY2VTpVJpum58fDyuXr26oyub7t1b2bbP0huErbCdP8OPit8dtso34R/W90EAACAASURBVPcHAIDWbebvHkmu0S0tLcWpU6cagqZ8Pr+poOn27dttrb9x48Yj37++smktlUolXn311bY+HwAAAGC3eOiwqVqtxsjISMOVsYGBgbh48WJLQdPTTz+dGc/Pz7d1hs7ObMqWz+e3df+IxsqmVWNjY/H6669n5kqlUiwsLLR1BgAAAIDd4KHCpnK5HIVCoeHK2MTERJw7d67lq2LN1tVqtZbPsbi4mBmvrGSvAGz1/hHNK5vGxsbi+PHjcfjw4RgYGMh87eTJk22dAQAAAGA32HTYtLCwEIODgw1BU7FY3NTb1urDmLt377b87M2bNzPj/fv3b/v+9ZVN+Xw+jh8/fn/8yiuvZL5eqVTi4sWLLZ8BAAAAYDfYVNi0sLAQw8PDDfOXL1+OoaGhTR2kr68vM/7ss89aeq5WqzVc4au/Nrcd+9dXNu3bty8z7unpiWKxmJm7cOFClMvlls4BAAAAsBu0HTZVq9WmQdNbb70VBw4c2PRB6sOZ+mbja/n4448z43w+37Sqaqv3r69sWl5eblgzNDTU0O9pcHDQdToAAADgsdFW2FSr1eL06dMN89euXYve3t6HOsiBAwcil8vdH8/Pz7dU9XPp0qXM+KWXXnok+9dXNnV1dTVdd/bs2YY5b6cDAAAAHhdthU1//vOfG97kNj093dIb51px4sSJzHh8fDyq1eqa62dmZjLnyeVycfDgwUeyfyuVTRHNr9OVSqWYm5tb8xwAAAAAu8UTrS6s1WoxPT3dMP/+++/H+++/3/YH/+hHP4r+/v7M3PPPPx+5XO5+0/FKpRKFQiH+8Ic/ZCqnlpaW4o033ogLFy5knj9x4sS6jcm3cv9WK5siIo4ePRpvv/12JsgqFotRKpWiu7t7zecAAAAAdrqWw6br1683vHkuovXeR/XqexdFRHR0dMTvfve7TE+oSqUSg4ODkcvloq+vL5aXlxsadkd8/ba5w4cPr/uZW7l/q5VNq+c4ffp0DA4OZs7xxz/+Mc6cObPu9wAAAACwk7V8jW5xcTHpB6+srDSdP3DgQNMKqkqlEqVSac0g6Ny5cy197lbt305lU0REb29vTExMZOZcpwMAAAB2u5bDpvV6G21GZ2fnml/r7++Pa9euxcjIyLp75HK5KBaLMTU1te71ue3Yv53KplXN3upXKBRiaWlpw2cBAAAAdqJ/+Oqrr7561IdYT61Wi+vXr0fE19VQnZ2dsbKyEocOHUrSmHyr99+N7t1rXnW2FfbubQwd//e//Oe2fT6733//x68a5rbzZ/hRafa7c/ffn30EJ2G3evrfbjad/yb8/gAA0Lpmf/fYSMs9mx6Vjo6ODXsx7eT9AQAAAL5JWr5GBwAAAAAbETYBAAAAkIywCQAAAIBkhE0AAAAAJCNsAgAAACAZYRMAAAAAyQibAAAAAEhG2AQAAABAMsImAAAAAJIRNgEAAACQjLAJAAAAgGSETQAAAAAkI2wCAAAAIBlhEwAAAADJCJsAAAAASEbYBAAAAEAywiYAAAAAkhE2AQAAAJCMsAkAAACAZIRNAAAAACQjbAIAAAAgGWETAAAAAMkImwAAAABIRtgEAAAAQDLCJgAAAACSETYBAAAAkIywCQAAAIBkhE0AAAAAJCNsAgAAACAZYRMAAAAAyQibAAAAAEhG2AQAAABAMsImAAAAAJIRNgEAAACQjLAJAAAAgGSETQAAAAAkI2wCAAAAIBlhEwAAAADJCJsAAAAASEbYBAAAAEAywiYAAAAAkhE2AQAAAJCMsAkAAACAZIRNAAAAACQjbAIAAAAgGWETAAAAAMkImwAAAABIRtgEAAAAQDLCJgAAAACSETYBAAAAkIywCQAAAIBkhE0AAAAAJCNsAgAAACAZYRMAAAAAyQibAAAAAEhG2AQAAABAMsImAAAAAJIRNgEAAACQjLAJAAAAgGSETQAAAAAkI2wCAAAAIBlhEwAAAADJCJsAAAAASEbYBAAAAEAywiYAAAAAkhE2AQAAAJCMsAkAAACAZIRNAAAAACQjbAIAAAAgGWETAAAAAMkImwAAAABIRtgEAAAAQDLCJgAAAACSETYBAAAAkIywCQAAAIBkhE0AAAAAJCNsAgAAACAZYRMAAAAAyQibAAAAAEhG2AQAAABAMsImAAAAAJIRNgEAAACQjLAJAAAAgGSETQAAAAAk88SjPgAAwHbau7fzUR+Bx9C9eyuP+ggAsGOobAIAAAAgGWETAAAAAMkImwAAAABIRtgEAAAAQDIahAMA33j/5w//51EfgV3k/47/30d9BADY0VQ2AQAAAJCMsAkAAACAZIRNAAAAACQjbAIAAAAgGWETAAAAAMkImwAAAABIRtgEAAAAQDJPbNXGMzMzcfPmzejq6oozZ8609Wy1Wo0vv/xyU5/75JNPRk9PT8vr5+bm4tNPP71/1uXl5ejq6op8Ph/PPfdcdHd3t3zmmZmZ+8/39PTE6Ojopr4HAAAAgN1qS8Kmubm5OH/+/P1xu2HT6dOnY35+flOfPTIy0tLnlcvlGB8fj0ql0vTrpVIpIiKKxWIcPXo0Ojo6Ntxz9ZnVcwAAAAB80yS/RletVqNQKGz6+VqttumgKSJieXl5wzVXrlyJwcHBNYOmB01OTsapU6eiVqutu66+EquVcwAAAAA8bpJWNi0tLT1U0BQR8cUXXzzU811dXet+fWFhISYnJxvmx8bG4qmnnoqVlZV48803M0HU7OxsRERMTU2tue+TTz7Z1jkAAAAAHkfJwqZyuRyDg4MPvc9HH32UGQ8MDMSLL74YKysr0dnZueG/v/Wtb62599LSUpw8eTIzl8/nY2pqKtObaXh4OC5fvpy5Cjg7OxsvvvhiHD58uOneKpsAAAAAEoVN7777bvzmN79JsVWsrKxkxseOHYve3t4ke7/xxhuZiqWBgYE4d+5cQz+mjo6OGB0djc7OzkwV1NTUVDz//PNN+zepbAIAAAB4yJ5N1Wo1fvvb3yYLmiIi/vKXv2TGe/bsSbJvrVaLd955JzN37NixdRt/Dw0NxcDAwP1xpVKJ69evN12rsgkAAABgk2FTrVaLmZmZeOGFFzJvYIuITDizGQ82B8/lcpnrbQ/jk08+aahqaqVi6tixY5nxe++913SdyiYAAACATYZNf/7znzP9jFaNjIzEuXPnNn2YcrmcGff19W16r3offPDBpvauD6RmZ2djaWmpYd1mKpuq1WqUy+XMP832BgAAANgtNtWzqbOzMzPO5/Nx/PjxOHDgwEMd5vPPP8+Mv//97z/Ufg+6c+dOZnzo0KGWnx0ZGclUcN25c6eh4qrdyqaFhYUYHh7OzK32kAIAAADYrTYVNj3YxPv1119fs2l2u/7+979nxvv27bv/52q1Gvfu3Yvbt2/Hd77znfj2t7/dVuPw2dnZzLg+HFpPT09PZlwfikW0V9k0NzcXhUIhM5fP55s2KwcAAADYTTYVNu3bty9pyLTq1q1bmfHevXvjypUrMT09nem3tCqXy8XPf/7z+OlPf7pub6dmV9Pa6QVVX8m1uLjYsKbVyqaFhYWGoGmtt+IBAAAA7DabCpse9rrcWuqbjRcKhaYh06pKpRLnz5+PN998MyYnJ6O/v7/pui+++CIzzuVybZ2rPmyqVqsNa1qpbGp2dU5FEwAAAPA42VTYtBWaVR+tFzTVrysUClEsFmNoaGjD9e02Hn/mmWc2XLNRZdN6PZp2WtC0d2/nxotgB/MzDJvn9wc2x+8OAPx/OyZsqm/g/aBisRj79++/P/7888/j0qVLMT8/n1k3OTkZ+/bt27LKq/WsV9mkogkAAAD4ptgxYVOzpttrVf709vZGf39/XLlyJSYnJzNfO3nyZFy9enXbQ5y1KpuaBU0TExMxPDwsaAIAAAAeO//rUR9g1eLiYgwMDNwft3LFbGhoKIrFYmauUqnExx9/vGXnXEuzyqa5ubmGoGlsbCxGR0cFTQAAAMBjacdUNo2OjkZExNTUVFvPDQ0Nxdtvv525Uvf++++v2Sx8q9RXNt26dStmZ2cb1h05cmS7jgQAAACw7XZM2PQwRkZGMmFTqVSKM2fObOsZ6iub1mpuPj4+/kiu+bXj3r2VbfsszTTZCtv5M/yo+N1hq/j9gc35JvzuAPDNtJn/d9ox1+geRrO3xdVqtTXX3759u639b9y4seGa+sqmtVQqlXj11Vfb+nwAAACA3eKxCJt6e3sb5u7evXv/z08//XTma/VvsdtIZ2c2xcvn8w1r6iubVo2NjcXrr7+emSuVSrGwsNDWGQAAAAB2g8cibGrmwUqjZlfW1qt8qre4uJgZr6w0lkk3q2waGxuL48ePx+HDhzPNzyO+fmteO2cAAAAA2A12RNhUq9WiXC5HuVyOubm5mJuba+v5crncMNfT05MZ14c9D1Y+beTmzZuZ8f79+xvW1Fc25fP5OH78+P3xK6+8kvl6pVKJixcvtnwGAAAAgN1gR4RNd+/ejcHBwRgcHIxCoRCFQqGt5z/77LPMuNk1t76+vnWfWUutVmt4q1z9tbyIxsqmffv2ZcY9PT1RLBYzcxcuXGgalAEAAADsVjsibNqzZ0/DXDs9jd57773M+Ic//GHDmvrwp1QqtbT3xx9/nBnn8/mm1/LqK5uWl5cb1gwNDTUEYYODg67TAQAAAI+NHRE2dXd3N4Qwb7/9dkvPlsvlhsqjH//4xw3rDhw4ELlc7v54fn6+paqiS5cuZcYvvfRS03X1lU1dXV1N1509e7ZhztvpAAAAgMfFjgibIiJ+8pOfZMalUmnD3k3VajXGx8czcwMDAw39mladOHEiMx4fH49qtbrm/jMzM5k31+VyuTh48GDTta1UNkU0v07XyvcKAAAAsBvsmLDp6NGjDdVNhUIhXnvttVhaWsrM12q1ePfdd+OFF16ISqVyfz6Xy8Xk5OSan/H8889nqpsqlUoUCoWGCqelpaV47bXX4vz585n5EydONL1CF9F6ZVNE8++1WCw2fJ8AAAAAu80Tj/oAqzo6OuLs2bNRKBQyAdKFCxfiwoULkc/nY9++fbG8vNxwbW7V9PR0dHd3r/sZv/vd72J4ePj+XKVSicHBwcjlctHX17fm/gMDA3H48OE19261smn1HKdPn47BwcHMOf74xz/GmTNn1nwOAAAAYKfbMZVNEV9fMSuVSk3fJjc/Px+lUqlpEJTL5eLatWtrXp970IEDB2J6erphvlKprLn/wMBAnDt3bt1926lsiojo7e2NiYmJzJzrdAAAAMBut6PCpoivm4VfvHgxisVi5spbM7lcLiYmJuLq1astBU2r+vv749q1azEyMrLh/sViMaampta8PreqncqmVQ9WWK0qFAqu0wEAAAC71pZco2vlLW/r6ejoiKGhoRgaGopqtRofffRRdHZ2xsrKyv1/Hzp0qK2AqV5PT0+cOXMm/vVf/zWuX78eEfFQ+/f29rb9fXd0dDz0fysAAACAnWTH9GxaS09Pz0OFShvp6OhYtxcTAAAAAK3bcdfoAAAAANi9hE0AAAAAJCNsAgAAACAZYRMAAAAAyQibAAAAAEhG2AQAAABAMsImAAAAAJIRNgEAAACQjLAJAAAAgGSETQAAAAAkI2wCAAAAIBlhEwAAAADJCJsAAAAASEbYBAAAAEAywiYAAAAAkhE2AQAAAJCMsAkAAACAZIRNAAAAACQjbAIAAAAgGWETAAAAAMkImwAAAABIRtgEAAAAQDLCJgAAAACSETYBAAAAkIywCQAAAIBkhE0AAAAAJCNsAgAAACAZYRMAAAAAyQibAAAAAEhG2AQAAABAMsImAAAAAJIRNgEAAACQjLAJAAAAgGSETQAAAAAkI2wCAAAAIBlhEwAAAADJCJsAAAAASEbYBAAAAEAywiYAAAAAkhE2AQAAAJCMsAkAAACAZIRNAAAAACQjbAIAAAAgGWETAAAAAMkImwAAAABIRtgEAAAAQDLCJgAAAACSETYBAAAAkIywCQAAAIBkhE0AAAAAJCNsAgAAACAZYRMAAAAAyQibAAAAAEhG2AQAAABAMsImAAAAAJIRNgEAAACQjLAJAAAAgGSETQAAAAAkI2wCAAAAIBlhEwAAAADJCJsAAAAASEbYBAAAAEAywiYAAAAAkhE2AQAAAJCMsAkAAACAZIRNAAAAACQjbAIAAAAgGWETAAAAAMkImwAAAABIRtgEAAAAQDLCJgAAAACSETYBAAAAkIywCQAAAIBkhE0AAAAAJCNsAgAAACAZYRMAAAAAyQibAAAAAEhG2AQA8P/au6PQOM/0XuBPYW+UIhDYWQpB7gRTVLbEFJ+EMeLoeCkpcQavCguilaDnQkyIBYti53BWOBbH5DBWcA6nipcFV9joooExwTfpJigJa0JtlRDRHF3Y4OwQjMceKkoSgUCQucy5MFL9zYykkfxZMyP9fhA276vve/Vo8cSj/zzv+wEAkBphEwAAAACpETYBAAAAkBphEwAAAACpETYBAAAAkBphEwAAAACpETYBAAAAkBphEwAAAACpETYBAAAAkBphEwAAAACpETYBAAAAkBphEwAAAACpETYBAAAAkBphEwAAAACpETYBAAAAkBphEwAAAACpETYBAAAAkBphEwAAAACpETYBAAAAkBphEwAAAACp+cnTWnh2djbu3LkTPT09cf78+R2vMz8/H9988836WisrK9HT0xPZbDZeeumlOHDgwBPVmdb6lUolZmdn1+/v7e2N0dHRJ6oNAAAAoNM8lbBpfn4+Ll68uD7eSdhUKpVifHw8yuVyw68Xi8WIiCgUCnHy5Mno6upq+fpr90REjIyMbKseAAAAgL0g9W10lUol8vn8E61x/fr1GBwc3DAIetzk5GS89dZbUa1WW7r+Dz/8kBivrKw0XQ8AAADAXpFqZ9Py8vITB02Li4sxOTlZNz82NhbPPfdcrK6uxgcffJAIiubm5iIiYnp6umXrP/PMM4lxT0/PlrUAAAAA7DWphU2lUikGBwefaI3l5eU4e/ZsYi6bzcb09HTi7KTh4eG4du1aYqve3NxcvPLKK3HixImWrK+zCQAAACClbXSffvrpEwdNERHvv/9+oqMol8vFzMxM3SHdXV1dMTo6GoVCITE/PT296Xa3p7m+ziYAAACAJwybKpVKvP322/HGG288cSHVajU++eSTxNypU6c2PZh7aGgocrnc+rhcLsfNmzdbsr7OJgAAAIAdhk3VajVmZ2fj5ZdfTjyBLSIS4cx2fP3113VdR319fVved+rUqcT4s88+a8n6OpsAAAAAdhg2ffzxx4nzjNaMjIzE1NTUjgq5detWYtzf39/UfbWB0dzcXCwvL+/6+jvpbKpUKlEqlRL/NFobAAAAoFPsKGzq7u5OjLPZbFy7di3Onz+/6ba0zTx48CAxPnbsWNP3joyMbLrWbqy/3c6mxcXFePnll2NwcHD9n3/8x3+sWwcAAACgk+zoaXSrq6vr/37p0qU4fvz4jkOmNXNzc4nxdkKX3t7exPjbb7/d9fW309k0Pz8f+Xw+MZfNZmNqauqJ/38EAAAAaKUdhU2HDx9OLWSKiIZbx2qfELeZ2k6rpaWlXV0/ovnOpsXFxbqgKZfLCZoAAACAPWFHYdPRo0dTLeL7779PjDOZzLburw2DKpXKrq4f0Vxn0+LiYgwPDyfmdDQBAAAAe8mOwqanrdnDu9c8//zzLV9/q86mRkFTu3Y0Pfts99YXQRvzZxh2zusHdsZrBwD+044OCKfeZp1NOpoAAACA/aItO5s60UadTY2CpomJiRgeHhY0AQAAAHuOzqaUNOpsmp+frwuaxsbGYnR0VNAEAAAA7Ek6m1JS29l09+7dmJubq7vu1Vdf3a2SAAAAAHadsCkltZ1N5XK54XXj4+Px4YcftnVn03ffre7a93KYJk/Dbv4ZbhWvHZ4Wrx/Ymf3w2gFgf9rJe6e23EZ37969bV1/+/btlq9f29m0kXK5HO++++62vj8AAABAp2iLsOnQoUOJ8cLCwrbu7+5OpmzZbHZX14+o72xaMzY2FpcuXUrMFYvFWFxc3FYNAAAAAJ2gLcKmRlvKqtVq0/cvLS0lxquryTbmp71+ROPOprGxsTh9+nScOHEicrlc4mtnz57dVg0AAAAAnaAtwqaIqAtjHj582PS9d+7cSYyPHDmy6+vXdjZls9k4ffr0+vjNN99MfL1cLsfMzEzTNQAAAAB0grYJm/r7+xPj+/fvN3VftVqte+pb7ba53Vi/trPp8OHDiXFvb28UCoXE3OXLl6NUKjVVBwAAAEAnaJuwqTacKRaLTd331VdfJcbZbLbhtrmnvX5tZ9PKykrdNUNDQ3XnPQ0ODtpOBwAAAOwZbRM2HT16NDKZzPp4YWGhqa6fK1euJMavvfZaS9av7Wzq6elpeN2FCxfq5jydDgAAANgr2iZsiog4c+ZMYjw+Ph6VSmXD62dnZxNPlstkMvHiiy+2ZP1mOpsiGm+nKxaLMT8/v2EdAAAAAJ2ircKm48ePJ7qPyuVy5PP5ug6k5eXleO+99+LixYuJ+TNnzjTc4rYb6zfb2RQRcfLkybrtdIVCIZaXlze8BwAAAKAT/KTVBTyuq6sr3nnnnRgeHl6fK5fLMTg4GJlMJvr7+2NlZaXuwO6IR0+bO3HiRMvWb7azaa2Oc+fOxeDgYKKO3/72t3H+/PlNfwYAAACAdtZWnU0Rj85Wunr1at18uVyOYrG4YRA0NTXV0vW309kUEdHX1xcTExOJOdvpAAAAgE7XdmFTRMTAwEDcuHEjRkZGNr0uk8lEoVCI6enpTbfP7cb62+lsWvN4h9WafD5vOx0AAADQsf7oxx9//LHVRWymWq3GzZs3IyJidXU1uru7Y3V1NY4dOxa9vb1tv34n+u671V37Xs8+210391/+5z/t2ven8/2///Pf6+Z2889wqzR67Tz83y+0oBI61aH/dafh/H59/fzX3/zXFlRCp/rX8X+tm9sPrx0A9qdG75220lZnNjXS1dW15VlM7bw+AAAAwH7SltvoAAAAAOhMwiYAAAAAUiNsAgAAACA1wiYAAAAAUiNsAgAAACA1wiYAAAAAUiNsAgAAACA1wiYAAAAAUiNsAgAAACA1wiYAAAAAUiNsAgAAACA1wiYAAAAAUiNsAgAAACA1wiYAAAAAUiNsAgAAACA1wiYAAAAAUiNsAgAAACA1wiYAAAAAUiNsAgAAACA1wiYAAAAAUiNsAgAAACA1wiYAAAAAUiNsAgAAACA1wiYAAAAAUiNsAgAAACA1wiYAAAAAUiNsAgAAACA1wiYAAAAAUiNsAgAAACA1P2l1AQAAQPt79tnuVpfAHvXdd6utLgFImc4mAAAAAFIjbAIAAAAgNcImAAAAAFIjbAIAAAAgNQ4IBwAAduTmfzve6hLoIMdv3Wx1CcAu0dkEAAAAQGqETQAAAACkRtgEAAAAQGqETQAAAACkRtgEAAAAQGqETQAAAACkRtgEAAAAQGqETQAAAACkRtgEAAAAQGqETQAAAACkRtgEAAAAQGqETQAAAACkRtgEAAAAQGqETQAAAACkRtgEAAAAQGqETQAAAACkRtgEAAAAQGqETQAAAACkRtgEAAAAQGqETQAAAACkRtgEAAAAQGqETQAAAACkRtgEAAAAQGqETQAAAACkRtgEAAAAQGqETQAAAACkRtgEAAAAQGqETQAAAACkRtgEAAAAQGqETQAAAACkRtgEAAAAQGqETQAAAACkRtgEAAAAQGqETQAAAACkRtgEAAAAQGqETQAAAACkRtgEAAAAQGqETQAAAACkRtgEAAAAQGqETQAAAACkRtgEAAAAQGqETQAAAACkRtgEAAAAQGqETQAAAACkRtgEAAAAQGqETQAAAACkRtgEAAAAQGqETQAAAACkRtgEAAAAQGqETQAAAACkRtgEAAAAQGqETQAAAACkRtgEAAAAQGqETQAAAACkRtgEAAAAQGqETQAAAACkRtgEAAAAQGqETQAAAACkRtgEAAAAQGqETQAAAACkRtgEAAAAQGp+0uoCGqlUKvHDDz/s6N5nnnkment7m75+fn4+vvnmm7hz50709PTEyspK9PT0RDabjZdeeikOHDjQdM2zs7Pr9/f29sbo6OiOfgYAAACATtWWYdO5c+diYWFhR/eOjIzE+fPnt7yuVCrF+Ph4lMvlhl8vFosREVEoFOLkyZPR1dW15Zpr96zVAQAAALDftN02umq1uuOgKSJiZWVly2uuX78eg4ODGwZNj5ucnIy33norqtXqptfVdmI1UwcAAADAXtN2nU3ff//9E93f09Oz6dcXFxdjcnKybn5sbCyee+65WF1djQ8++CARRM3NzUVExPT09IbrPvPMM9uqAwAAAGAvaruw6csvv0yMc7lcvPLKK7G6uhrd3d1b/u8f//Efb7j28vJynD17NjGXzWZjeno6cTbT8PBwXLt2LS5evLg+Nzc3F6+88kqcOHGi4do6mwAAAADaMGxaXV1NjE+dOhV9fX2prP3+++8nOpZyuVxMTU3VncfU1dUVo6Oj0d3dneiCmp6ejuPHjzc8v0lnEwAAAEAbntn0L//yL4nxwYMHU1m3Wq3GJ598kpg7derUpgd/Dw0NRS6XWx+Xy+W4efNmw2t1NgEAAAC0Ydj0+OHgmUwmsb3tSXz99dd1XU3NdEydOnUqMf7ss88aXqezCQAAAKDNttGVSqXEuL+/P7W1b926taO1awOpubm5mJycrAvBdtLZVKlU6u47ePBgagEbAAAAwG5rq7Dp22+/TYx/9rOfpbb2gwcPEuNjx441fe/IyEgUi8XEWrWB0HY7mxYXF2N4eDgxt3aGFAAAAECnaquw6T/+4z8S48OHD6//e6VSie+++y7u3bsXf/InfxI//elPt3Vw+NzcXGJcGw5tpre3NzGuDcUittfZND8/H/l8PjGXzWYbHlYOAAAA0EnaKmy6e/duOLTyKwAAGlJJREFUYvzss8/G9evX4+rVq4nzltZkMpn427/92/ibv/mbTbeeLS8v181tZ6tad3d3Yry0tFR3TbOdTYuLi3VB00ZPxQMAAADoNG0VNj2+VS0iIp/PNwyZ1pTL5bh48WJ88MEHMTk5GQMDAw2v+/777xPjTCazrbpqw6ZKpVJ3TTOdTY22zuloAgAAAPaStnkaXaPuo82Cptrr8vl8XL9+vanrt3vw+PPPP7/lNVt1Nm10RtPMzIygCQAAANgz2qazqfYA78cVCoU4cuTI+vjbb7+NK1euxMLCQuK6ycnJOHz4cBw9evSp1bmRzTqbOq2j6dlnu7e+CNqYP8Owc14/sDNeO7BzXj+w97RN2NTo0O2NzjLq6+uLgYGBuH79ekxOTia+dvbs2fjwww93PcTZqLOpUdA0MTERw8PDbRk0AQAAADyJttlGt7S0FLlcbn3czKHZQ0NDUSgUEnPlcjm++uqrp1bnRhp1Ns3Pz9cFTWNjYzE6OipoAgAAAPaktulsGh0djYiI6enpbd03NDQUH330UWJL3eeff77hYeFPS21n0927d2Nubq7uuldffXW3SgIAAADYdW0TNj2JkZGRRNhULBbj/Pnzu1pDbWfTRoebj4+Pt2Sb33Z8993qrn0v+7N5Gnbzz3CreO3wtHj9wM547cDO7YfXD3Synfz3v2220T2JRk+Lq1arG15/7969ba1/+/btLa+p7WzaSLlcjnfffXdb3x8AAACgU+yJsKmvr69u7uHDh+v/fujQocTXap9it5Xu7mSKl81m666p7WxaMzY2FpcuXUrMFYvFWFxc3FYNAAAAAJ1gT4RNjTzeadRoy9pmnU+1lpaWEuPV1fo2z0adTWNjY3H69Ok4ceJE4vDziEdPzdtODQAAAACdoC3Cpmq1GqVSKUqlUszPz8f8/Py27i+VSnVzvb29iXFt2PN459NW7ty5kxgfOXKk7prazqZsNhunT59eH7/55puJr5fL5ZiZmWm6BgAAAIBO0BZh08OHD2NwcDAGBwcjn89HPp/f1v33799PjBttc+vv79/0no1Uq9W6p8rVbsuLqO9sOnz4cGLc29sbhUIhMXf58uWGQRkAAABAp2qLsOngwYN1c9s50+izzz5LjH/+85/XXVMb/hSLxabW/uqrrxLjbDbbcFtebWfTyspK3TVDQ0N1Qdjg4KDtdAAAAMCe0RZh04EDB+pCmI8++qipe0ulUl3n0V//9V/XXXf06NHIZDLr44WFhaa6iq5cuZIYv/baaw2vq+1s6unpaXjdhQsX6uY8nQ4AAADYK9oibIqI+MUvfpEYF4vFLc9uqlQqMT4+npjL5XJ15zWtOXPmTGI8Pj4elUplw/VnZ2cTT67LZDLx4osvNry2mc6miMbb6Zr5WQEAAAA6QduETSdPnqzrbsrn8/Hee+/F8vJyYr5arcann34aL7/8cpTL5fX5TCYTk5OTG36P48ePJ7qbyuVy5PP5ug6n5eXleO+99+LixYuJ+TNnzjTcQhfRfGdTROOftVAo1P2cAAAAAJ3mJ60uYE1XV1dcuHAh8vl8IkC6fPlyXL58ObLZbBw+fDhWVlbqts2tuXr1ahw4cGDT7/HOO+/E8PDw+ly5XI7BwcHIZDLR39+/4fq5XC5OnDix4drNdjat1XHu3LkYHBxM1PHb3/42zp8/v+F9AAAAAO2ubTqbIh5tMSsWiw2fJrewsBDFYrFhEJTJZOLGjRsbbp973NGjR+Pq1at18+VyecP1c7lcTE1NbbrudjqbIiL6+vpiYmIiMWc7HQAAANDp2ipsinh0WPjMzEwUCoXElrdGMplMTExMxIcffthU0LRmYGAgbty4ESMjI1uuXygUYnp6esPtc2u209m05vEOqzX5fN52OgAAAKBjtc02usd1dXXF0NBQDA0NRaVSiS+//DK6u7tjdXV1/X+PHTu2rYCpVm9vb5w/fz5+/etfx82bNyMinmj9vr6+pp5u97iurq5t3wMAAADQztoybHpcb2/vE4VKW+nq6tr0LCYAAAAAmtd22+gAAAAA6FzCJgAAAABSI2wCAAAAIDXCJgAAAABSI2wCAAAAIDXCJgAAAABSI2wCAAAAIDXCJgAAAABSI2wCAAAAIDXCJgAAAABSI2wCAAAAIDXCJgAAAABSI2wCAAAAIDXCJgAAAABSI2wCAAAAIDXCJgAAAABSI2wCAAAAIDXCJgAAAABSI2wCAAAAIDXCJgAAAABSI2wCAAAAIDXCJgAAAABSI2wCAAAAIDXCJgAAAABSI2wCAAAAIDXCJgAAAABSI2wCAAAAIDXCJgAAAABSI2wCAAAAIDXCJgAAAABSI2wCAAAAIDXCJgAAAABSI2wCAAAAIDXCJgAAAABSI2wCAAAAIDXCJgAAAABSI2wCAAAAIDXCJgAAAABSI2wCAAAAIDXCJgAAAABSI2wCAAAAIDU/aXUBAAAAsJc9+2x3q0tgD/ruu9VWl7AhnU0AAAAApEbYBAAAAEBqhE0AAAAApEbYBAAAAEBqhE0AAAAApMbT6AAAAGCX/fZ/fNTqEuggv/q/v2h1CduiswkAAACA1AibAAAAAEiNsAkAAACA1AibAAAAAEiNsAkAAACA1AibAAAAAEiNsAkAAACA1AibAAAAAEiNsAkAAACA1AibAAAAAEiNsAkAAACA1AibAAAAAEiNsAkAAACA1AibAAAAAEiNsAkAAACA1AibAAAAAEiNsAkAAACA1AibAAAAAEiNsAkAAACA1AibAAAAAEiNsAkAAACA1AibAAAAAEiNsAkAAACA1AibAAAAAEiNsAkAAACA1AibAAAAAEiNsAkAAACA1AibAAAAAEiNsAkAAACA1AibAAAAAEiNsAkAAACA1AibAAAAAEiNsAkAAACA1AibAAAAAEiNsAkAAACA1AibAAAAAEiNsAkAAACA1AibAAAAAEiNsAkAAACA1AibAAAAAEiNsAkAAACA1AibAAAAAEiNsAkAAACA1AibAAAAAEiNsAkAAACA1AibAAAAAEiNsAkAAACA1AibAAAAAEiNsAkAAACA1Pyk1QW02vz8fHzzzTdx586d6OnpiZWVlejp6YlsNhsvvfRSHDhwoKl1KpVKzM7Ort/f29sbo6OjT7l6AAAAgPayb8OmUqkU4+PjUS6XG369WCxGREShUIiTJ09GV1fXlmuu3RMRMTIykk6hAAAAAB1kX26ju379egwODm4YND1ucnIy3nrrrahWq5te98MPPyTGKysrT1QjAAAAQCfad51Ni4uLMTk5WTc/NjYWzz33XKyursYHH3yQCKLm5uYiImJ6enrDdZ955pnEuKenJ6WKAQAAADrHvgqblpeX4+zZs4m5bDYb09PTibOZhoeH49q1a3Hx4sX1ubm5uXjllVfixIkTDdfW2QQAAACwz7bRvf/++4mOpVwuFzMzM3WHgHd1dcXo6GgUCoXE/PT09Ibb6XQ2AQAAAOyjsKlarcYnn3ySmDt16tSmB38PDQ1FLpdbH5fL5bh582bDa3U2AQAAAOyjsOnrr7+u62rq6+vb8r5Tp04lxp999lnD63Q2AQAAAOyjM5tu3bqVGPf39zd1X20gNTc3F5OTk3Vb73bS2VSpVOruO3jwYN3aAAAAAJ1i34RNDx48SIyPHTvW9L0jIyNRLBYTa9UGQtvtbFpcXIzh4eHEXC6Xi6mpqabrAgAAAGg3+2Yb3dzcXGJcGw5tpre3NzH+9ttv667ZTmfT/Px8XdCUzWZjampq0zOkAAAAANrdvgiblpeX6+a2s1Wtu7s7MV5aWqq7ptnOpsXFxcjn84m5tafiCZoAAACATrcvwqbvv/8+Mc5kMtu6vzZsqlQqddc009nUaOucjiYAAABgL9k3ZzY9rtnDwdc8//zzW16zVWfTZmc0CZqS/t//+e+tLgE60qH/dafVJUDH+tfxf211CdCRjt+62eoSoGP96v/+otUlwFOzL8Omp2GzzqZO62h69tnurS+CNubPMOyc1w/sjNcO7JzXD+xMO792hE0p2aizqVHQNDExEcPDw20ZNAEAAAA8iX1xZtNuaNTZ1Oipc2NjYzE6OipoAgAAAPYknU0pqe1sunv3bszNzdVd9+qrr+5WSQAAAAC7TmdTSmo7m8rlcsPrxsfHo1qt7kZJAAAAALtuX4ZN9+7d29b1t2/f3vKa2s6mjZTL5Xj33Xe39f0BAAAAOsW+CJsOHTqUGC8sLGzr/u7u5Anv2Wy27prazqY1Y2NjcenSpcRcsViMxcXFbdUAAAAA0An2RdjU6DDu7WxlW1paSoxXV1frrmnU2TQ2NhanT5+OEydORC6XS3zt7NmzttMBAAAAe86+CJsioi7sefjwYdP33rlzJzE+cuRI3TW1nU3ZbDZOnz69Pn7zzTcTXy+XyzEzM9N0DQAAAACdYN+ETf39/Ynx/fv3m7qvWq3WPVWudlteRH1n0+HDhxPj3t7eKBQKibnLly9HqVRqqg4AAACATrBvwqba8KdYLDZ131dffZUYZ7PZhtvyajubVlZW6q4ZGhqqO+9pcHDQdjoAAABgz9g3YdPRo0cjk8msjxcWFprqKrpy5Upi/NprrzW8rrazqaenp+F1Fy5cqJvzdDoAAABgr9g3YVNExJkzZxLj8fHxqFQqG14/OzubeHJdJpOJF198seG1zXQ2RTTeTlcsFmN+fn7T2gEAAAA6wb4Km44fP57obiqXy5HP5+s6nJaXl+O9996LixcvJubPnDnTcAtdRPOdTRERJ0+erNtOVygUYnl5uamfAwAAAKBd/dGPP/74Y6uL2E2Li4sxPDxcN5/JZKK/vz9WVlbqDgSPePQ0u+np6Q3XLZVKMTg4uOPrIyJGRkbi/PnzzfwYAAAAAG1pX3U2RTw6u+nq1at18+VyOYrF4oZB09TU1KbrbqezKSKir68vJiYmEnO20wEAAACdbt+FTRERAwMDcePGjRgZGdn0ukwmE4VCIaanpzfcPrem2TObHteowyqfz9tOBwAAAHSsfbeNrla1Wo2bN29GRMTq6mp0d3fH6upqHDt2LHp7e1tcHQAAAEBn2fdhEwAAAADp2Zfb6AAAAAB4OoRNAAAAAKRG2AQAAABAaoRNAAAAAKRG2AQAAABAaoRNAAAAAKRG2AQAAABAaoRNAAAAAKRG2AQAAABAaoRNAAAAAKRG2AQAAABAaoRNAAAAAKTmJ60uAGhsfn4+vvnmm7hz50709PTEyspK9PT0RDabjZdeeikOHDjQ6hKhY8zOzq6/ls6fP9/qcqAtLS8vx7/927/F0tJS3d89vb298Wd/9mfx4osvRldXV6tLhbay9tr5wx/+EA8ePFh/7bzwwgteN/AE3n777YiIWFlZif7+/hgaGmpxRWzHH/34448/troI4D+VSqUYHx+Pcrm86XWFQiFOnjzpzQtsYX5+PvL5/Pq4VCq1sBpoP8vLy/HP//zPcfHixS2vzWQykc/nveGHiKhWq3Ht2rUtXzuZTCbOnDkTJ06c2KXKoPNdv349Jicn18cjIyM+MOwwwiZoI7X/Ud1KLpeLqakpgRNsoFKpxMsvv5yYEzbBf6pUKpHP57f8gKNWNpuNmZkZf/+wb+3kteN9GzSn0fs3YVPnsY0O2sTi4mLDoGlsbCyee+65WF1djQ8++CDxpmZubi4iIqanp3etTugUy8vLiY4mIGmjX5YzmUy8+uqr8dxzz0VExBdffLH+982ahYWFeOutt/z9w75UrVYbvnay2Wz8/Oc/j+7u7vj3f//3+OSTT7xvg22qVqtx7ty5VpdBCoRN0AaWl5fj7NmziblsNhvT09OJs5mGh4fr2rXn5ubilVde0ZoNjymVSjE4ONjqMqCt/cM//EPdL8uFQqFui9zQ0FBMTk5GoVBIhE5zc3PO0GBfmpmZqXvtXLp0qe692Ouvvx4zMzNx+fLl9Tnv22BzH3/8cSwsLLS6DFLgaXTQBt5///3Em5ZcLhczMzN1h4B3dXXF6OhoFAqFxPz09HRUq9VdqRXa3aeffipogi2USqW6bqWrV69uGBwdOHAgpqenY2RkpO4e2E8qlUoiPIp49DpoFB51dXXF6dOnY2xsLDGvswkaK5VK2zpShPYmbIIWq1ar8cknnyTmTp06tel+/qGhocjlcuvjcrkcN2/efGo1QieoVCrx9ttvxxtvvNHqUqDt1f69MzIyEgMDA1ve96tf/SoxLpfLsbi4mGpt0M5+//vfJ8a5XG7L187rr7+eGJfLZecHQo1qtRrj4+OtLoMUCZugxb7++uu6rqa+vr4t7zt16lRi/Nlnn6VeG3SCarUas7Oz8fLLL0exWEx87fFQFvhPtWHT3/3d3zV134EDB+q6NO7du5daXdDu7ty5kxj//d///Zb3dHV11XUF3r9/P9W6oNPVbk+t3clB5xE2QYvdunUrMe7v72/qvtpAam5uLpaXl1OrCzrFxx9/3PCx0yMjIzE1NdWCiqD91Z4308yHHGv+/M//PDHu7u5OpSboBP39/TExMbH+Ycaf/umfNnXfyspKYry6upp6bdCpPv3008T21ImJiThy5EgLKyINDgiHFnvw4EFifOzYsabvHRkZSXRyPHjwoO6cJ9jran/RzWazcfr06Th69GiLKoL297vf/S5u374d3d3d2z6I9Q9/+ENi7Jdm9pPHzzXbztlLtR8I+kUaHlleXk68lrLZbAwPD8fDhw9bWBVpEDZBi9Ue0PrMM880fW9vb29i/O2336ZSE3SSx3/RvXTpUhw/fnzTM8+AR51Ma91M230qVu0ZTTqbYHOlUqku1D148GCLqoH2UigUEt22Fy5c8D5ujxA2QQs12va2nc6k2jf4S0tLT1wTdJrDhw8LmWCXVCqVul+a/+Iv/qJF1UD7W15erjv0eGJiQic6xKPtc49/8H7p0qW6D9PpXMImaKHvv/8+Mc5kMtu6vzZsqlQqT1wTdBrb5WD3nDt3LjHOZrN+MYAGKpVK/P73v294puDw8HALKoL2UiqVEk8QzuVy2+60pb0Jm6CNNHs4+Jrnn3/+KVUCAEnvvfdeXVdTbfgE+9n169fjiy++qDsiYU0ul4s333xTFy77XrVajQsXLqyPM5lMTE5OtrAingZPowMAYFPz8/OJJwVFRIyNjW3rKXaw1929e3fDoCmTycSpU6d0AkJEzMzMJD68OHPmjK2le5CwCQCADc3Pz0c+n0/MZbPZeP3111tUEbSnlZWVDb9WLpdjcHAw3n777YZndsJ+sbi4mPjwYmRkxPa5Pco2OgAAGmoUNGUyGU8LggZeeOGF+OUvfxk//elPI+LRU4KvXLmS6OAoFovxxRdfRLFY1MnBvlOtVuPs2bPr40wmE7/+9a9bWBFPk84mAADqzM7ONgyarl69aisQNDA6OhoDAwPR19cXfX19MTAwEP/0T/8UhUIhcV25XK6bg/3g3XffjXK5vD7+zW9+44OLPUzYBADAumq1Gm+//XbdU7QETbAzQ0NDMTExkZibm5uLxcXFFlUEu+/TTz+NYrG4Pnbu394nbII2cu/evW1df/v27adUCQD70fLycrz11luJXwgiHp3RJGiCnRsdHY1sNpuYu3XrVouqgd1VqVRienp6fezcv/3BmU3QQocOHUqMax8pvZXu7u7EuPZNDAA0q1KpRD6fT2xxiHj0uPapqSlbHeAJ/eIXv0i813vw4EELq4Hd8+WXXyb+bllYWIi//Mu/3NYaxWIx8UHIyMhInD9/PrUaSZ/OJmihRm/cq9Vq0/cvLS0lxqurq09cEwD7T6lUahg0TUxMCJogJYcPH06M5+bmWlQJ7K7aD8jZH3Q2QYvlcrnEm42HDx82vX/5zp07ifGRI0dSrQ2AvW9xcTGGh4fr5guFQgwNDbWgImhP1Wo1Hj58GPfv34+lpaXo7u72GoEm+EB8fxI2QYv19/cnwqb79+83FTZVq9W6T8Rqt+UBwGY2CpquXbsWR48ebUFF0L4ePnwYg4OD6+NMJrOtsKn2bM5cLpdabdDODh8+HCMjI9u6Z2VlJfG7TiaTif7+/vWxMwTbn7AJWqy2pbpYLMaJEye2vO+rr75KjLPZrG0OADStUqk0DJp+97vfeUIQNHDw4MHEuFwux+LiYtPB7BdffJEYv/DCC6nVBu3s6NGj2/4Ao1QqJcKm/v5+ZzR1GGc2QYsdPXo0MpnM+nhhYSFKpdKW9125ciUxfu2111KvDYC9qVqtxrlz5+rmb9y4IWiCDRw4cKCuG+mjjz5q6t7FxcW6jvTtHpAM0EmETdAGzpw5kxiPj49HpVLZ8PrZ2dnE00wymUy8+OKLT60+APaWjz/+uO4JqFevXrUtAbbwy1/+MjEuFosxPz+/6T2VSiXOnj2bmMtms7aqAnuabXTQBo4fPx6ZTGb9KUDlcjny+Xz85je/SXzCvLy8HO+//35cvnw5cf+ZM2dsoQOgKdVqNa5evVo3//nnn8fnn3++7fX+6q/+KgYGBtIoDdrewMBA3cNd8vl8FAqFOHnyZOL9WLVajZs3b8Ybb7xRt86FCxd2pV6AVhE2QRvo6uqKd955J3F2RrlcjsHBwfXD8GoPyVuTy+WaOuMJACIibt68uf7hxuOKxeKO1stms09aEnSUycnJuHv3buJ1NDk5GZOTk5HL5aKnp2fD920Rjw7g10UI7HXCJmgTR48ejatXr0Y+n0/Ml8vlhr8URDwKmqampnajPAD2iKWlpVTX80hr9psDBw5EsViMQqFQFyhtFDBFPDr2oLZrHWCvcmYTtJGBgYG4cePGlo8GzWQyUSgUYnp62vY5ALZlszMBd6K7uzvV9aATHDhwIKampqJQKCQe9LKRsbGx+PDDDwVNwL7xRz/++OOPrS4CqLe2zz/i0afG3d3dsbq6GseOHdN6DQDQRkqlUty+fTsiIu7evRs/+9nPIiLiyJEjcejQIR8OAvuOsAkAAACA1NhGBwAAAEBqhE0AAAAApEbYBAAAAEBqhE0AAAAApEbYBAAAAEBq/j8807E2AQ/9nwAAAABJRU5ErkJggg==;" parent="1" vertex="1">
          <mxGeometry x="118" y="290" width="274.75" height="206" as="geometry" />
        </mxCell>
      </root>
    </mxGraphModel>
  </diagram>
</mxfile>
